<?xml version="1.0" standalone="no"?>
<!DOCTYPE svg PUBLIC "-//W3C//DTD SVG 20010904//EN"
 "http://www.w3.org/TR/2001/REC-SVG-20010904/DTD/svg10.dtd">
<svg version="1.0" xmlns="http://www.w3.org/2000/svg"
 width="225.000000pt" height="225.000000pt" viewBox="0 0 225.000000 225.000000"
 preserveAspectRatio="xMidYMid meet">

<g transform="translate(0.000000,225.000000) scale(0.100000,-0.100000)"
fill="#F97316" stroke="none">
<path d="M1020 1983 c-52 -31 -120 -71 -150 -88 -135 -79 -331 -191 -390 -225
-36 -20 -119 -68 -185 -107 l-120 -70 -3 -477 -2 -477 42 -62 c23 -34 82 -102
132 -152 l91 -90 5 555 5 554 55 32 c74 42 310 178 385 222 33 19 78 45 101
57 22 13 59 35 82 49 23 14 49 26 57 26 9 0 41 -16 71 -35 30 -19 57 -35 60
-35 3 0 58 -31 122 -69 195 -114 265 -154 350 -201 l81 -45 3 -555 3 -555 91
90 c50 50 109 118 132 152 l42 62 0 475 0 475 -29 20 c-16 12 -32 21 -36 21
-3 0 -45 23 -93 52 -48 28 -177 103 -287 166 -110 63 -226 130 -257 148 -32
19 -84 49 -115 67 -32 19 -74 43 -93 55 -19 12 -39 22 -45 21 -5 0 -53 -25
-105 -56z"/>
<path d="M875 1265 c-38 -24 -89 -55 -113 -69 l-42 -25 2 -547 3 -547 65 -19
c139 -40 205 -50 335 -50 130 0 196 10 335 50 l65 19 3 546 2 546 -44 30 c-25
17 -48 31 -51 31 -4 0 -37 18 -74 40 -37 22 -70 40 -74 40 -4 0 -7 -240 -7
-532 0 -293 -4 -538 -8 -543 -12 -17 -129 -85 -146 -85 -10 0 -42 16 -72 35
-30 19 -58 35 -63 35 -5 0 -12 7 -15 16 -3 9 -6 254 -6 545 0 417 -3 529 -12
528 -7 0 -44 -20 -83 -44z"/>
</g>
</svg>
