<svg width="520" height="520" viewBox="0 0 520 520" fill="none" xmlns="http://www.w3.org/2000/svg">
<g clip-path="url(#clip0_12333_57217)">
<mask id="mask0_12333_57217" style="mask-type:alpha" maskUnits="userSpaceOnUse" x="-43" y="275" width="564" height="270">
<path d="M285.034 541.69L513.528 434.333C522.885 429.936 522.839 416.612 513.451 412.281L226.08 279.696C215.407 274.772 203.128 274.705 192.402 279.51L-36.0333 381.874C-45.1104 385.942 -45.2277 398.784 -36.2296 403.018L258.473 541.682C266.882 545.641 276.619 545.643 285.034 541.69Z" fill="url(#paint0_linear_12333_57217)"/>
</mask>
<g mask="url(#mask0_12333_57217)">
<path opacity="0.03" d="M302.666 517.316L513.547 420.055C522.184 416.071 522.141 404 513.477 400.077L248.256 279.96C238.406 275.498 227.074 275.438 217.174 279.791L6.34675 372.529C-2.03065 376.214 -2.13887 387.849 6.1656 391.685L278.152 517.309C285.913 520.896 294.9 520.898 302.666 517.316Z" fill="white"/>
</g>
<g opacity="0.6">
<g opacity="0.65">
<path d="M519.623 190.276V391.86C519.623 392.717 518.858 393.122 518.361 393.122C518.18 393.122 518.002 393.076 517.821 392.987L465.415 368.236L465.393 368.213L415.531 344.655C413.956 343.911 412.941 342.29 412.941 340.556V137.101C412.941 135.862 413.976 135.098 414.945 135.098C415.238 135.098 415.531 135.144 415.801 135.279L446.609 149.849C447.126 150.073 447.555 150.478 447.825 150.975L451.788 158.046C452.263 158.903 453.004 159.601 453.907 160.03L478.477 171.628C479.422 172.079 480.503 171.921 481.291 171.268L484.174 168.836C484.76 168.362 485.548 168.25 486.223 168.566L514.239 181.808C517.505 183.361 519.623 186.672 519.623 190.276Z" fill="#2F2F33"/>
</g>
<path d="M457.272 224.564C457.272 226.056 455.698 227.022 454.368 226.347L420.165 208.994C419.494 208.653 419.07 207.964 419.07 207.21V168.719C419.07 167.227 420.645 166.261 421.975 166.936L456.177 184.289C456.849 184.63 457.272 185.319 457.272 186.073V224.564Z" fill="#313236"/>
<path d="M507.679 248.56C507.679 250.052 506.104 251.019 504.774 250.344L470.572 232.991C469.9 232.65 469.477 231.96 469.477 231.207V192.714C469.477 191.222 471.051 190.255 472.381 190.93L506.584 208.283C507.255 208.624 507.679 209.313 507.679 210.067V248.56Z" fill="#313236"/>
<path d="M457.272 276.629C457.272 278.121 455.698 279.088 454.368 278.413L420.165 261.059C419.494 260.719 419.07 260.029 419.07 259.276V220.785C419.07 219.293 420.645 218.326 421.975 219.001L456.177 236.354C456.849 236.695 457.272 237.385 457.272 238.138V276.629Z" fill="#313236"/>
<path d="M507.679 300.623C507.679 302.115 506.104 303.082 504.774 302.407L470.572 285.054C469.9 284.713 469.477 284.023 469.477 283.27V244.779C469.477 243.287 471.051 242.32 472.381 242.995L506.584 260.349C507.255 260.689 507.679 261.379 507.679 262.132V300.623Z" fill="#313236"/>
<path d="M457.272 328.696C457.272 330.188 455.698 331.155 454.368 330.48L420.165 313.127C419.494 312.786 419.07 312.097 419.07 311.343V272.852C419.07 271.36 420.645 270.394 421.975 271.069L456.177 288.422C456.849 288.763 457.272 289.452 457.272 290.205V328.696Z" fill="#313236"/>
<path d="M507.679 352.691C507.679 354.183 506.104 355.149 504.774 354.474L470.572 337.121C469.9 336.78 469.477 336.091 469.477 335.337V296.846C469.477 295.354 471.051 294.388 472.381 295.063L506.584 312.416C507.255 312.757 507.679 313.446 507.679 314.2V352.691Z" fill="#313236"/>
<path d="M289.807 55.0429V256.627C289.807 257.483 289.042 257.889 288.545 257.889C288.364 257.889 288.185 257.843 288.004 257.754L235.599 233.003L235.576 232.98L185.715 209.422C184.14 208.677 183.125 207.056 183.125 205.323V1.86778C183.125 0.62896 184.16 -0.135742 185.129 -0.135742C185.422 -0.135742 185.715 -0.089862 185.985 0.045236L216.792 14.6154C217.31 14.8397 217.738 15.245 218.008 15.7421L221.972 22.8131C222.446 23.6695 223.188 24.368 224.09 24.7962L248.66 36.3943C249.606 36.8454 250.687 36.6874 251.474 36.0348L254.357 33.6031C254.944 33.129 255.731 33.0168 256.407 33.3329L284.423 46.575C287.688 48.1299 289.807 51.4411 289.807 55.0429Z" fill="#212225"/>
<path d="M272.865 85.9726L241.859 70.3803C241.125 70.0107 240.523 69.1083 240.523 68.3742C240.523 67.6401 241.125 67.3419 241.859 67.7115L272.865 83.3038C273.6 83.6734 274.201 84.5758 274.201 85.3099C274.201 86.044 273.6 86.3422 272.865 85.9726Z" fill="#303134"/>
<path d="M272.865 93.0742L241.859 77.4818C241.125 77.1122 240.523 76.2099 240.523 75.4758C240.523 74.7416 241.125 74.4434 241.859 74.813L272.865 90.4054C273.6 90.775 274.201 91.6773 274.201 92.4114C274.201 93.1456 273.6 93.4438 272.865 93.0742Z" fill="#303134"/>
<path d="M272.865 100.178L241.859 84.5854C241.125 84.2158 240.523 83.3134 240.523 82.5793C240.523 81.8452 241.125 81.5469 241.859 81.9165L272.865 97.5089C273.6 97.8785 274.201 98.7808 274.201 99.515C274.201 100.247 273.6 100.545 272.865 100.178Z" fill="#303134"/>
<path d="M272.865 107.28L241.859 91.6879C241.125 91.3183 240.523 90.4159 240.523 89.6818C240.523 88.9477 241.125 88.6495 241.859 89.0191L272.865 104.611C273.6 104.981 274.201 105.883 274.201 106.618C274.201 107.349 273.6 107.65 272.865 107.28Z" fill="#303134"/>
<path d="M272.865 114.382L241.859 98.7895C241.125 98.4198 240.523 97.5175 240.523 96.7834C240.523 96.0493 241.125 95.751 241.859 96.1206L272.865 111.713C273.6 112.083 274.201 112.985 274.201 113.719C274.201 114.453 273.6 114.751 272.865 114.382Z" fill="#303134"/>
<path d="M272.865 121.483L241.859 105.891C241.125 105.521 240.523 104.619 240.523 103.885C240.523 103.151 241.125 102.853 241.859 103.222L272.865 118.815C273.6 119.184 274.201 120.087 274.201 120.821C274.201 121.555 273.6 121.853 272.865 121.483Z" fill="#303134"/>
<path d="M236.937 102.577C236.937 104.069 235.362 105.036 234.032 104.361L199.829 87.0077C199.158 86.6668 198.734 85.9774 198.734 85.2241V46.733C198.734 45.2411 200.309 44.2744 201.639 44.9495L235.841 62.3027C236.513 62.6436 236.937 63.333 236.937 64.0863V102.577Z" fill="#2B2D30"/>
<path d="M235.784 100.001C235.784 101.487 234.22 102.454 232.89 101.79L201.204 85.9617C200.526 85.623 200.098 84.9303 200.098 84.1725V49.1175C200.098 47.6311 201.662 46.6641 202.991 47.3284L234.678 63.1569C235.356 63.4955 235.784 64.1882 235.784 64.9461V100.001Z" fill="#1E1F22"/>
<path d="M198.734 73.9821L214.023 63.1768L219.754 81.7566L229.578 75.4554L236.937 87.4077V105.835L198.734 86.4519V73.9821Z" fill="#242528"/>
<path d="M232.613 69.6188C232.613 72.0786 230.62 73.1467 228.16 72.0047C225.7 70.8627 223.707 67.9441 223.707 65.4843C223.707 63.0245 225.7 61.9565 228.16 63.0984C230.617 64.2404 232.613 67.159 232.613 69.6188Z" fill="#242528"/>
<path d="M272.865 140.078L241.859 124.486C241.125 124.116 240.523 123.214 240.523 122.48C240.523 121.746 241.125 121.447 241.859 121.817L272.865 137.409C273.6 137.779 274.201 138.681 274.201 139.415C274.201 140.147 273.6 140.448 272.865 140.078Z" fill="#303134"/>
<path d="M272.865 147.18L241.859 131.587C241.125 131.218 240.523 130.315 240.523 129.581C240.523 128.847 241.125 128.549 241.859 128.918L272.865 144.511C273.6 144.88 274.201 145.783 274.201 146.517C274.201 147.251 273.6 147.549 272.865 147.18Z" fill="#303134"/>
<path d="M272.865 154.28L241.859 138.688C241.125 138.318 240.523 137.416 240.523 136.682C240.523 135.948 241.125 135.649 241.859 136.019L272.865 151.611C273.6 151.981 274.201 152.883 274.201 153.618C274.201 154.352 273.6 154.65 272.865 154.28Z" fill="#303134"/>
<path d="M272.865 161.383L241.859 145.79C241.125 145.421 240.523 144.518 240.523 143.784C240.523 143.05 241.125 142.752 241.859 143.122L272.865 158.714C273.6 159.084 274.201 159.986 274.201 160.72C274.201 161.454 273.6 161.752 272.865 161.383Z" fill="#303134"/>
<path d="M272.865 168.484L241.859 152.892C241.125 152.522 240.523 151.62 240.523 150.886C240.523 150.152 241.125 149.854 241.859 150.223L272.865 165.816C273.6 166.185 274.201 167.087 274.201 167.822C274.201 168.556 273.6 168.854 272.865 168.484Z" fill="#303134"/>
<path d="M272.865 175.589L241.859 159.996C241.125 159.627 240.523 158.725 240.523 157.99C240.523 157.256 241.125 156.958 241.859 157.328L272.865 172.92C273.6 173.29 274.201 174.192 274.201 174.926C274.201 175.658 273.6 175.958 272.865 175.589Z" fill="#303134"/>
<path d="M236.937 156.107C236.937 157.599 235.362 158.565 234.032 157.89L199.829 140.537C199.158 140.196 198.734 139.507 198.734 138.753V100.262C198.734 98.7704 200.309 97.8037 201.639 98.4788L235.841 115.832C236.513 116.173 236.937 116.862 236.937 117.616V156.107Z" fill="#2B2D30"/>
<path d="M235.784 153.53C235.784 155.017 234.22 155.984 232.89 155.319L201.204 139.491C200.526 139.152 200.098 138.46 200.098 137.702V102.647C200.098 101.16 201.662 100.193 202.991 100.858L234.678 116.686C235.356 117.025 235.784 117.718 235.784 118.475V153.53Z" fill="#1E1F22"/>
<path d="M198.734 127.511L214.023 116.706L219.754 135.286L229.578 128.985L236.937 140.937V159.364L198.734 139.981V127.511Z" fill="#242528"/>
<path d="M232.613 123.148C232.613 125.608 230.62 126.676 228.16 125.534C225.7 124.392 223.707 121.473 223.707 119.014C223.707 116.554 225.7 115.486 228.16 116.628C230.617 117.77 232.613 120.688 232.613 123.148Z" fill="#242528"/>
<g opacity="0.43">
<path d="M272.865 194.182L241.859 178.589C241.125 178.22 240.523 177.317 240.523 176.583C240.523 175.849 241.125 175.551 241.859 175.92L272.865 191.513C273.6 191.882 274.201 192.785 274.201 193.519C274.201 194.253 273.6 194.551 272.865 194.182Z" fill="#27282B"/>
<path d="M272.865 201.283L241.859 185.691C241.125 185.321 240.523 184.419 240.523 183.685C240.523 182.951 241.125 182.652 241.859 183.022L272.865 198.614C273.6 198.984 274.201 199.886 274.201 200.62C274.201 201.355 273.6 201.653 272.865 201.283Z" fill="white"/>
<path d="M272.865 208.387L241.859 192.794C241.125 192.425 240.523 191.522 240.523 190.788C240.523 190.054 241.125 189.756 241.859 190.126L272.865 205.718C273.6 206.087 274.201 206.99 274.201 207.724C274.201 208.456 273.6 208.756 272.865 208.387Z" fill="white"/>
<path d="M272.865 215.489L241.859 199.897C241.125 199.527 240.523 198.625 240.523 197.891C240.523 197.157 241.125 196.858 241.859 197.228L272.865 212.82C273.6 213.19 274.201 214.092 274.201 214.826C274.201 215.561 273.6 215.859 272.865 215.489Z" fill="white"/>
<path d="M272.865 222.591L241.859 206.998C241.125 206.629 240.523 205.726 240.523 204.992C240.523 204.258 241.125 203.96 241.859 204.33L272.865 219.922C273.6 220.292 274.201 221.194 274.201 221.928C274.201 222.662 273.6 222.96 272.865 222.591Z" fill="white"/>
<path d="M272.865 229.692L241.859 214.1C241.125 213.73 240.523 212.828 240.523 212.094C240.523 211.36 241.125 211.062 241.859 211.431L272.865 227.024C273.6 227.393 274.201 228.296 274.201 229.03C274.201 229.764 273.6 230.062 272.865 229.692Z" fill="white"/>
</g>
<path d="M236.937 210.91C236.937 212.402 235.362 213.369 234.032 212.694L199.829 195.341C199.158 195 198.734 194.31 198.734 193.557V155.066C198.734 153.574 200.309 152.607 201.639 153.282L235.841 170.636C236.513 170.977 236.937 171.666 236.937 172.419V210.91Z" fill="#2B2D30"/>
<path d="M235.784 208.334C235.784 209.82 234.22 210.787 232.89 210.123L201.204 194.295C200.526 193.956 200.098 193.263 200.098 192.506V157.451C200.098 155.964 201.662 154.997 202.991 155.661L234.678 171.49C235.356 171.829 235.784 172.521 235.784 173.279V208.334Z" fill="#1E1F22"/>
<path d="M198.734 182.315L214.023 171.51L219.754 190.09L229.578 183.788L236.937 195.741V214.168L198.734 194.785V182.315Z" fill="#242528"/>
<path d="M232.613 177.952C232.613 180.412 230.62 181.48 228.16 180.338C225.7 179.196 223.707 176.277 223.707 173.817C223.707 171.358 225.7 170.289 228.16 171.431C230.617 172.573 232.613 175.492 232.613 177.952Z" fill="#242528"/>
</g>
<path d="M272.263 31.0085L372.684 78.4687C377.601 80.7934 380.739 85.7461 380.739 91.1857V347.783C380.739 352.029 370.273 358.659 366.432 356.845L268.124 303.7C264.932 302.191 262.895 298.979 262.895 295.449L255.055 37.3071C255.057 32.4895 267.912 28.9514 272.263 31.0085Z" fill="#2F2F33"/>
<path d="M263.744 34.2746L364.165 81.7348C369.082 84.0595 372.22 89.0123 372.22 94.4519V351.049C372.22 355.296 367.798 358.097 363.959 356.282L259.607 306.966C256.416 305.457 254.379 302.245 254.379 298.715V40.2088C254.379 35.3937 259.39 32.2176 263.744 34.2746Z" fill="#323237"/>
<path d="M366.646 95.7923V348.612C366.646 349.468 365.882 349.873 365.385 349.873C365.204 349.873 365.025 349.828 364.844 349.738L312.439 324.987L312.416 324.964L262.555 301.409C260.979 300.665 259.965 299.043 259.965 297.31V42.6197C259.965 41.3809 261 40.6162 261.968 40.6162C262.262 40.6162 262.555 40.6621 262.825 40.7972L293.632 55.3674C294.15 55.5917 294.578 55.997 294.848 56.4941L298.812 63.565C299.286 64.4215 300.028 65.1199 300.93 65.5482L325.5 77.1462C326.446 77.5974 327.527 77.4393 328.314 76.7868L331.197 74.355C331.783 73.8809 332.571 73.7688 333.247 74.0848L361.263 87.327C364.528 88.8794 366.646 92.1905 366.646 95.7923Z" fill="#29292D"/>
<path d="M323.539 72.7586L304.248 63.3349C303.647 63.0418 303.152 62.3077 303.152 61.7036C303.152 61.102 303.644 60.8496 304.248 61.1428L323.539 70.5665C324.141 70.8596 324.635 71.5937 324.635 72.1979C324.635 72.7994 324.144 73.0518 323.539 72.7586Z" fill="#2D2C2A"/>
<path d="M357.421 126.899C357.421 131.582 354.666 134.337 350.694 134.337C349.134 134.337 347.365 133.901 345.507 132.984L334.029 127.312L281.848 101.486C275.304 98.2942 269.934 90.3056 269.934 83.7623C269.934 79.0797 272.689 76.3242 276.66 76.3242C278.22 76.3242 279.989 76.7601 281.848 77.6777L334.029 103.504L345.507 109.173C352.05 112.37 357.421 120.359 357.421 126.899Z" fill="#313134"/>
<path d="M357.42 126.899C357.42 131.582 354.664 134.337 350.693 134.337C349.133 134.337 347.364 133.901 345.506 132.984L334.027 127.312V103.507L345.506 109.176C352.049 112.37 357.42 120.358 357.42 126.899Z" fill="#38383B"/>
<path d="M347.244 127.508L345.466 123.287C345.663 123.167 345.844 123.018 345.987 122.825C346.497 122.14 346.595 121.112 346.261 120.002C345.691 118.105 344.069 116.62 342.568 116.62C341.946 116.62 341.405 116.886 341.048 117.368C340.538 118.053 340.439 119.082 340.772 120.191C341.344 122.088 342.966 123.571 344.465 123.571C344.598 123.571 344.727 123.553 344.852 123.529L346.635 127.763L347.244 127.508ZM341.405 120C341.136 119.105 341.2 118.27 341.577 117.76C341.811 117.446 342.154 117.278 342.568 117.278C343.753 117.278 345.153 118.611 345.629 120.19C345.898 121.085 345.833 121.92 345.458 122.428C345.224 122.742 344.881 122.91 344.465 122.91C343.282 122.912 341.882 121.578 341.405 120Z" fill="#4991FF"/>
<path d="M329.519 115.011L276.626 88.4144C275.372 87.7848 274.348 86.2426 274.348 84.9911C274.348 83.737 275.372 83.2297 276.626 83.8593L329.519 110.456C330.773 111.085 331.797 112.628 331.797 113.879C331.795 115.131 330.77 115.64 329.519 115.011Z" fill="#38383B"/>
<path d="M360.151 165.532L321.005 145.849C320.077 145.382 319.32 144.243 319.32 143.315C319.32 142.387 320.08 142.01 321.005 142.476L360.151 162.16C361.078 162.626 361.835 163.766 361.835 164.694C361.838 165.622 361.078 165.999 360.151 165.532Z" fill="#00FFA3"/>
<path d="M360.151 174.497L321.005 154.814C320.077 154.347 319.32 153.208 319.32 152.28C319.32 151.352 320.08 150.975 321.005 151.441L360.151 171.125C361.078 171.591 361.835 172.731 361.835 173.659C361.838 174.586 361.078 174.964 360.151 174.497Z" fill="#313134"/>
<path d="M360.151 183.465L321.005 163.781C320.077 163.315 319.32 162.176 319.32 161.248C319.32 160.32 320.08 159.943 321.005 160.409L360.151 180.093C361.078 180.559 361.835 181.698 361.835 182.626C361.838 183.554 361.078 183.931 360.151 183.465Z" fill="#313134"/>
<path d="M360.151 192.433L321.005 172.749C320.077 172.283 319.32 171.143 319.32 170.216C319.32 169.288 320.08 168.91 321.005 169.377L360.151 189.06C361.078 189.527 361.835 190.666 361.835 191.594C361.838 192.519 361.078 192.897 360.151 192.433Z" fill="#313134"/>
<path d="M360.151 201.397L321.005 181.713C320.077 181.247 319.32 180.107 319.32 179.179C319.32 178.252 320.08 177.874 321.005 178.341L360.151 198.024C361.078 198.491 361.835 199.63 361.835 200.558C361.838 201.486 361.078 201.863 360.151 201.397Z" fill="#313134"/>
<path d="M360.151 210.364L321.005 190.681C320.077 190.214 319.32 189.075 319.32 188.147C319.32 187.219 320.08 186.842 321.005 187.309L360.151 206.992C361.078 207.459 361.835 208.598 361.835 209.526C361.838 210.454 361.078 210.831 360.151 210.364Z" fill="#313134"/>
<path d="M308.998 258.109L269.853 238.426C268.925 237.96 268.168 236.82 268.168 235.892C268.168 234.964 268.928 234.587 269.853 235.054L308.998 254.737C309.926 255.204 310.683 256.343 310.683 257.271C310.683 258.199 309.923 258.576 308.998 258.109Z" fill="#FF317B"/>
<path d="M308.998 267.074L269.853 247.391C268.925 246.924 268.168 245.785 268.168 244.857C268.168 243.929 268.928 243.552 269.853 244.018L308.998 263.702C309.926 264.168 310.683 265.308 310.683 266.236C310.683 267.164 309.923 267.541 308.998 267.074Z" fill="#313134"/>
<path d="M308.998 276.042L269.853 256.359C268.925 255.892 268.168 254.753 268.168 253.825C268.168 252.897 268.928 252.52 269.853 252.986L308.998 272.67C309.926 273.136 310.683 274.276 310.683 275.204C310.683 276.131 309.923 276.509 308.998 276.042Z" fill="#313134"/>
<path d="M358.736 280.457L319.591 260.774C318.663 260.307 317.906 259.168 317.906 258.24C317.906 257.312 318.666 256.935 319.591 257.401L358.736 277.085C359.664 277.551 360.421 278.691 360.421 279.619C360.421 280.546 359.664 280.924 358.736 280.457Z" fill="#4991FF"/>
<path d="M358.736 289.425L319.591 269.741C318.663 269.275 317.906 268.136 317.906 267.208C317.906 266.28 318.666 265.903 319.591 266.369L358.736 286.053C359.664 286.519 360.421 287.658 360.421 288.586C360.421 289.514 359.664 289.891 358.736 289.425Z" fill="#313134"/>
<path d="M358.736 298.39L319.591 278.706C318.663 278.24 317.906 277.1 317.906 276.173C317.906 275.245 318.666 274.867 319.591 275.334L358.736 295.017C359.664 295.484 360.421 296.623 360.421 297.551C360.421 298.479 359.664 298.856 358.736 298.39Z" fill="#313134"/>
<path d="M314.787 187.349C314.787 188.841 313.213 189.808 311.882 189.133L267.65 166.692C266.978 166.351 266.555 165.661 266.555 164.908V115.132C266.555 113.64 268.129 112.674 269.46 113.349L313.692 135.79C314.364 136.131 314.787 136.82 314.787 137.574V187.349Z" fill="#333337"/>
<path d="M312.251 182.833C312.251 184.322 310.683 185.289 309.353 184.62L270.02 164.844C269.344 164.505 268.918 163.813 268.918 163.057V119.224C268.918 117.735 270.486 116.768 271.816 117.437L311.15 137.213C311.825 137.552 312.251 138.244 312.251 139V182.833Z" fill="#29292D"/>
<path d="M266.555 150.392L285.858 136.75L293.095 160.206L305.496 152.253L314.787 167.341V190.606L266.555 166.135V150.392Z" fill="#333337"/>
<path d="M308.101 147.84C310.034 146.305 309.629 142.579 307.197 139.518C304.766 136.457 301.228 135.22 299.296 136.755C297.363 138.29 297.768 142.016 300.2 145.077C302.631 148.138 306.169 149.375 308.101 147.84Z" fill="#333337"/>
<path d="M310.249 243.997C310.249 245.489 308.675 246.456 307.344 245.781L267.099 225.362C266.427 225.021 266.004 224.332 266.004 223.579V178.289C266.004 176.797 267.578 175.83 268.909 176.505L309.154 196.923C309.826 197.264 310.249 197.954 310.249 198.707V243.997Z" fill="#333337"/>
<path d="M307.927 239.855C307.927 241.344 306.359 242.311 305.029 241.642L269.277 223.667C268.602 223.327 268.176 222.636 268.176 221.88V182.04C268.176 180.551 269.744 179.584 271.074 180.253L306.825 198.228C307.501 198.568 307.927 199.259 307.927 200.015V239.855Z" fill="#29292D"/>
<path d="M266.004 210.365L283.712 197.851L290.35 219.368L301.726 212.072L310.249 225.913V247.254L266.004 224.807V210.365Z" fill="#333337"/>
<path d="M304.116 208.023C305.888 206.615 305.517 203.197 303.286 200.389C301.056 197.581 297.81 196.447 296.038 197.855C294.265 199.263 294.636 202.681 296.867 205.489C299.098 208.297 302.343 209.432 304.116 208.023Z" fill="#333337"/>
<path d="M359.956 268.213C359.956 269.705 358.382 270.671 357.051 269.996L316.806 249.578C316.134 249.237 315.711 248.548 315.711 247.795V202.504C315.711 201.013 317.285 200.046 318.616 200.721L358.861 221.139C359.533 221.48 359.956 222.169 359.956 222.923V268.213Z" fill="#333337"/>
<path d="M357.634 264.071C357.634 265.56 356.066 266.527 354.736 265.858L318.984 247.883C318.309 247.543 317.883 246.852 317.883 246.096V206.256C317.883 204.767 319.451 203.8 320.781 204.469L356.532 222.444C357.208 222.784 357.634 223.475 357.634 224.231V264.071Z" fill="#29292D"/>
<path d="M315.711 234.581L333.419 222.066L340.057 243.583L351.433 236.288L359.956 250.128V271.47L315.711 249.022V234.581Z" fill="#333337"/>
<path d="M353.823 232.239C355.595 230.831 355.224 227.413 352.993 224.605C350.763 221.797 347.517 220.662 345.745 222.071C343.972 223.479 344.343 226.896 346.574 229.704C348.805 232.513 352.05 233.647 353.823 232.239Z" fill="#333337"/>
<path d="M298.827 303.155C299.431 302.675 299.304 301.51 298.544 300.553C297.784 299.597 296.678 299.21 296.074 299.69C295.47 300.17 295.597 301.334 296.357 302.291C297.117 303.248 298.223 303.634 298.827 303.155Z" fill="#4991FF"/>
<path opacity="0.3" d="M306.369 305.308C306.369 306.279 305.582 306.7 304.61 306.251C303.639 305.8 302.852 304.648 302.852 303.676C302.852 302.705 303.639 302.285 304.61 302.733C305.584 303.184 306.369 304.337 306.369 305.308Z" fill="#4991FF"/>
<path opacity="0.3" d="M313.519 308.403C313.519 309.374 312.731 309.795 311.763 309.346C310.792 308.895 310.004 307.743 310.004 306.774C310.004 305.803 310.792 305.382 311.763 305.831C312.731 306.28 313.519 307.432 313.519 308.403Z" fill="#4991FF"/>
<path d="M372.222 94.4518C372.222 89.0122 369.084 84.0594 364.167 81.7347L263.746 34.2745C261.982 33.441 260.109 33.4665 258.508 34.1139C259.925 33.7367 261.493 33.8259 262.981 34.5294L363.403 81.9896C368.32 84.3143 371.457 89.2671 371.457 94.7067V351.304C371.457 353.812 369.915 355.813 367.863 356.662C370.285 356.035 372.222 353.86 372.222 351.049V94.4518Z" fill="#323236"/>
<path d="M499.232 93.4114V294.996C499.232 295.852 498.468 296.257 497.971 296.257C497.79 296.257 497.611 296.211 497.43 296.122L445.025 271.371L445.002 271.348L395.141 247.79C393.565 247.046 392.551 245.425 392.551 243.691V40.2389C392.551 39.0001 393.586 38.2354 394.554 38.2354C394.847 38.2354 395.141 38.2812 395.411 38.4163L426.218 52.9865C426.736 53.2108 427.164 53.6161 427.434 54.1132L431.398 61.1842C431.872 62.0406 432.614 62.7391 433.516 63.1673L458.086 74.7653C459.032 75.2165 460.113 75.0585 460.9 74.4059L463.783 71.9742C464.369 71.5026 465.157 71.3879 465.833 71.704L493.849 84.9461C497.114 86.4985 499.232 89.8071 499.232 93.4114Z" fill="#2F2F33"/>
<path d="M449.031 265.649L447.943 265.122L399.438 242.206V47.9375L422.083 58.651L425.389 64.552C426.531 66.6193 428.377 68.3475 430.561 69.3875L455.144 80.9932C456.395 81.5871 457.808 81.9083 459.209 81.9083C461.417 81.9083 463.576 81.1283 465.289 79.7136L465.783 79.2955L490.907 91.1714C491.758 91.5767 492.344 92.4842 492.344 93.4146V286.11L449.031 265.649Z" fill="#29292D"/>
<path d="M456.303 201.358L417.158 181.674C416.23 181.208 415.473 180.068 415.473 179.14C415.473 178.212 416.232 177.835 417.158 178.302L456.303 197.985C457.231 198.452 457.988 199.591 457.988 200.519C457.988 201.447 457.228 201.821 456.303 201.358Z" fill="#333338"/>
<path d="M474.626 219.356L417.154 190.639C416.226 190.172 415.469 189.033 415.469 188.105C415.469 187.177 416.228 186.8 417.154 187.267L474.626 215.984C475.554 216.45 476.311 217.59 476.311 218.517C476.314 219.445 475.554 219.823 474.626 219.356Z" fill="#333338"/>
<path d="M474.626 228.324L417.154 199.607C416.226 199.14 415.469 198.001 415.469 197.073C415.469 196.145 416.228 195.768 417.154 196.234L474.626 224.952C475.554 225.418 476.311 226.557 476.311 227.485C476.314 228.413 475.554 228.79 474.626 228.324Z" fill="#333338"/>
<path d="M474.626 237.288L417.154 208.571C416.226 208.104 415.469 206.965 415.469 206.037C415.469 205.109 416.228 204.732 417.154 205.198L474.626 233.915C475.554 234.382 476.311 235.521 476.311 236.449C476.314 237.377 475.554 237.754 474.626 237.288Z" fill="#333338"/>
<path d="M474.625 142.121L442.388 125.129C441.46 124.663 440.703 123.523 440.703 122.595C440.703 121.668 441.463 121.29 442.388 121.757L474.625 138.748C475.553 139.215 476.31 140.354 476.31 141.282C476.313 142.21 475.553 142.587 474.625 142.121Z" fill="#333338"/>
<path d="M474.625 131.67L442.388 114.678C441.46 114.211 440.703 113.072 440.703 112.144C440.703 111.216 441.463 110.839 442.388 111.306L474.625 128.297C475.553 128.764 476.31 129.903 476.31 130.831C476.313 131.759 475.553 132.136 474.625 131.67Z" fill="#333338"/>
<path d="M459.586 100.062L427.349 83.0705C426.421 82.604 425.664 81.4646 425.664 80.5368C425.664 79.6089 426.424 79.2317 427.349 79.6982L459.586 96.6899C460.514 97.1564 461.271 98.2958 461.271 99.2236C461.274 100.151 460.514 100.529 459.586 100.062Z" fill="#4991FF"/>
<path d="M474.625 151.089L442.388 134.097C441.46 133.63 440.703 132.491 440.703 131.563C440.703 130.635 441.463 130.258 442.388 130.725L474.625 147.716C475.553 148.183 476.31 149.322 476.31 150.25C476.313 151.178 475.553 151.555 474.625 151.089Z" fill="#333338"/>
<path d="M474.626 160.053L417.154 131.336C416.226 130.87 415.469 129.73 415.469 128.802C415.469 127.875 416.228 127.497 417.154 127.964L474.626 156.681C475.554 157.147 476.311 158.287 476.311 159.215C476.314 160.143 475.554 160.52 474.626 160.053Z" fill="#333338"/>
<path d="M474.626 169.021L417.154 140.304C416.226 139.837 415.469 138.698 415.469 137.77C415.469 136.842 416.228 136.465 417.154 136.932L474.626 165.649C475.554 166.115 476.311 167.255 476.311 168.183C476.314 169.11 475.554 169.488 474.626 169.021Z" fill="#333338"/>
<path d="M474.626 177.989L417.154 149.272C416.226 148.805 415.469 147.666 415.469 146.738C415.469 145.81 416.228 145.433 417.154 145.899L474.626 174.617C475.554 175.083 476.311 176.222 476.311 177.15C476.314 178.078 475.554 178.455 474.626 177.989Z" fill="#333338"/>
<path d="M421.622 118.249L419.328 124.094L416.379 122.68L423.881 104.199L427.319 105.848L434.854 131.54L431.808 130.079L429.45 122.004L421.622 118.249ZM428.861 119.493L426.7 112.101C426.208 110.424 425.882 108.958 425.553 107.523L425.487 107.493C425.158 108.645 424.798 109.815 424.373 110.954L422.211 116.305L428.861 119.493Z" fill="#4991FF"/>
<path d="M435.768 242.492C436.372 242.012 436.246 240.847 435.486 239.89C434.726 238.933 433.62 238.547 433.016 239.027C432.412 239.507 432.538 240.671 433.298 241.628C434.058 242.585 435.164 242.971 435.768 242.492Z" fill="#4991FF"/>
<path opacity="0.3" d="M443.311 244.64C443.311 245.611 442.523 246.032 441.552 245.583C440.581 245.132 439.793 243.98 439.793 243.008C439.793 242.037 440.581 241.617 441.552 242.065C442.523 242.516 443.311 243.669 443.311 244.64Z" fill="#4991FF"/>
<path opacity="0.3" d="M450.463 247.734C450.463 248.705 449.675 249.126 448.704 248.677C447.733 248.228 446.945 247.074 446.945 246.105C446.945 245.134 447.733 244.713 448.704 245.162C449.675 245.611 450.463 246.765 450.463 247.734Z" fill="#4991FF"/>
<path opacity="0.05" d="M175.506 76.8456V278.43C175.506 279.286 174.741 279.691 174.244 279.691C174.063 279.691 173.885 279.646 173.704 279.556L121.298 254.805L121.275 254.782L71.414 231.224C69.8387 230.48 68.8242 228.859 68.8242 227.126V23.6705C68.8242 22.4317 69.8591 21.667 70.8277 21.667C71.1209 21.667 71.414 21.7129 71.6842 21.848L102.492 36.4182C103.009 36.6425 103.437 37.0478 103.708 37.5448L107.671 44.6158C108.145 45.4723 108.887 46.1707 109.79 46.5989L134.36 58.197C135.305 58.6482 136.386 58.4901 137.174 57.8376L140.057 55.4058C140.643 54.9317 141.43 54.8195 142.106 55.1356L170.122 68.3778C173.388 69.9327 175.506 73.2439 175.506 76.8456Z" fill="white"/>
<path d="M144.118 104.515C144.118 117.872 133.31 123.296 119.976 116.704C119.933 116.684 119.889 116.661 119.846 116.641C106.446 109.942 95.5742 93.6434 95.5742 80.2432C95.5742 66.843 106.446 61.4187 119.846 68.1175C123.866 70.1287 127.669 73.0244 131.021 76.4401C137.786 83.3352 142.693 92.4123 143.86 100.842C144.031 102.073 144.118 103.304 144.118 104.515Z" fill="#333337"/>
<path d="M144.118 104.515C144.118 117.872 133.31 123.296 119.976 116.704L117.621 91.5684L143.861 100.839C144.031 102.073 144.118 103.304 144.118 104.515Z" fill="#3A3A3D"/>
<path d="M143.861 100.842L117.621 91.5708L131.021 76.4424C137.789 83.3349 142.693 92.412 143.861 100.842Z" fill="#4991FF"/>
<path opacity="0.69" d="M123.23 134.673L103.829 125.576C103.031 125.206 102.379 124.251 102.379 123.455C102.379 122.657 103.031 122.308 103.829 122.678L123.23 131.775C124.028 132.145 124.68 133.101 124.68 133.896C124.678 134.694 124.025 135.043 123.23 134.673Z" fill="#2C2D30"/>
<path opacity="0.69" d="M123.23 161.048L103.829 151.951C103.031 151.581 102.379 150.626 102.379 149.83C102.379 149.032 103.031 148.683 103.829 149.053L123.23 158.15C124.028 158.52 124.68 159.476 124.68 160.271C124.678 161.066 124.025 161.418 123.23 161.048Z" fill="#2C2D30"/>
<path opacity="0.69" d="M147.303 154.902L103.829 134.821C103.031 134.452 102.379 133.496 102.379 132.7C102.379 131.902 103.031 131.553 103.829 131.923L147.303 152.004C148.101 152.374 148.753 153.33 148.753 154.125C148.753 154.923 148.101 155.272 147.303 154.902Z" fill="#2C2D30"/>
<path opacity="0.69" d="M147.303 164.145L103.829 144.064C103.031 143.695 102.379 142.739 102.379 141.943C102.379 141.146 103.031 140.796 103.829 141.166L147.303 161.247C148.101 161.617 148.753 162.573 148.753 163.368C148.753 164.166 148.101 164.515 147.303 164.145Z" fill="#2C2D30"/>
<path opacity="0.69" d="M143.015 204.506L123.614 195.409C122.817 195.039 122.164 194.084 122.164 193.288C122.164 192.49 122.817 192.141 123.614 192.511L143.015 201.608C143.813 201.978 144.465 202.934 144.465 203.729C144.465 204.527 143.813 204.876 143.015 204.506Z" fill="#2A2B2E"/>
<path opacity="0.69" d="M143.015 230.881L123.614 221.784C122.817 221.414 122.164 220.459 122.164 219.663C122.164 218.865 122.817 218.516 123.614 218.886L143.015 227.983C143.813 228.353 144.465 229.309 144.465 230.104C144.465 230.899 143.813 231.251 143.015 230.881Z" fill="#2A2B2E"/>
<path opacity="0.69" d="M167.088 224.735L123.614 204.654C122.817 204.285 122.164 203.329 122.164 202.533C122.164 201.735 122.817 201.386 123.614 201.756L167.088 221.837C167.886 222.207 168.538 223.163 168.538 223.958C168.538 224.753 167.886 225.105 167.088 224.735Z" fill="#2A2B2E"/>
<path opacity="0.69" d="M167.088 233.978L123.614 213.897C122.817 213.528 122.164 212.572 122.164 211.776C122.164 210.979 122.817 210.629 123.614 210.999L167.088 231.08C167.886 231.45 168.538 232.406 168.538 233.201C168.538 233.999 167.886 234.348 167.088 233.978Z" fill="#2A2B2E"/>
<path d="M100.158 192.235C101.078 191.929 101.665 191.07 101.665 189.788C101.665 187.515 99.8216 184.772 97.5478 183.663C95.2741 182.554 93.4312 183.497 93.4312 185.771C93.4312 187.053 94.0174 188.486 94.9376 189.689C92.0623 189.347 90.0078 191.104 90.0078 194.348C90.0078 194.731 90.0461 195.121 90.0996 195.513L104.991 202.783C105.044 202.444 105.083 202.09 105.083 201.707C105.088 198.46 103.033 194.7 100.158 192.235Z" fill="#2A2B2E"/>
<path d="M78.9844 185.393C78.9844 195.645 87.2967 207.778 97.5489 212.494C107.801 217.21 116.113 212.721 116.113 202.466C116.113 192.214 107.804 180.081 97.5489 175.365C87.2942 170.652 78.9844 175.141 78.9844 185.393ZM81.0491 186.341C81.0491 177.228 88.4362 173.239 97.5489 177.43C106.662 181.62 114.049 192.405 114.049 201.515C114.049 210.628 106.662 214.617 97.5489 210.427C88.4362 206.239 81.0491 195.454 81.0491 186.341Z" fill="#2A2B2E"/>
<path opacity="0.03" d="M324.761 431.247C324.761 431.247 322.775 450.1 262.159 458.211C201.544 466.322 165.962 462.906 200.402 441.138C234.842 419.367 249.781 420.052 249.781 420.052L324.761 431.247Z" fill="white"/>
<path d="M241.328 413.858V426.226H241.377C241.558 427.969 242.271 429.639 243.434 431.234C244.16 432.203 245.042 433.133 246.085 434.031C246.872 434.696 247.741 435.338 248.687 435.955C249.51 436.501 250.392 437.008 251.338 437.505C252.161 437.941 253.02 438.351 253.928 438.751C254.774 439.126 255.659 439.491 256.579 439.817C257.415 440.13 258.284 440.434 259.181 440.724C260.04 440.989 260.922 441.244 261.83 441.487C262.676 441.729 263.535 441.935 264.42 442.139C265.291 442.346 266.173 442.527 267.071 442.695C267.93 442.863 268.789 443.008 269.673 443.143C270.545 443.289 271.427 443.421 272.324 443.531C273.17 443.64 274.029 443.737 274.914 443.821C275.786 443.906 276.668 443.979 277.562 444.038C278.421 444.099 279.293 444.148 280.165 444.171C281.037 444.206 281.919 444.232 282.816 444.245C283.239 444.257 283.675 444.257 284.111 444.257C284.547 444.257 284.983 444.257 285.406 444.245C286.3 444.232 287.185 444.209 288.057 444.171C288.929 444.148 289.8 444.097 290.659 444.038C291.544 443.977 292.426 443.906 293.298 443.821C294.182 443.737 295.051 443.64 295.9 443.531C296.795 443.421 297.679 443.289 298.551 443.143C299.436 443.011 300.295 442.866 301.154 442.695C302.048 442.524 302.933 442.343 303.792 442.149C304.676 441.943 305.546 441.726 306.394 441.484C307.302 441.242 308.186 440.987 309.045 440.722C309.94 440.431 310.812 440.128 311.648 439.814C312.555 439.488 313.44 439.124 314.286 438.762C315.194 438.351 316.065 437.938 316.889 437.502C317.832 437.005 318.716 436.485 319.54 435.942C320.483 435.338 321.355 434.696 322.129 434.031C323.169 433.136 324.067 432.203 324.78 431.247C325.956 429.649 326.669 427.969 326.85 426.226H326.899V413.858H321.648C314.375 408 300.302 404.031 284.124 404.031C267.945 404.031 253.859 408 246.6 413.858H241.328Z" fill="#2C2D30"/>
<path d="M284.102 433.483C307.727 433.483 326.88 425.019 326.88 414.577C326.88 404.135 307.727 395.671 284.102 395.671C260.476 395.671 241.324 404.135 241.324 414.577C241.324 425.019 260.476 433.483 284.102 433.483Z" fill="#292B30"/>
<path d="M395.839 382.351C395.839 382.351 362.737 385.114 359.959 389.705C357.18 394.295 365.638 405.654 369.989 414.718C374.34 423.78 379.472 431.101 379.472 431.101C379.472 431.101 380.476 431.814 382.844 429.186C385.212 426.558 386.402 423.645 386.402 423.645L377.2 399.743L420.266 393.836C420.266 393.839 402.477 389.977 395.839 382.351Z" fill="#2B2B30"/>
<path d="M380.362 431.1C380.362 431.1 380.155 435.128 376.87 439.007C373.584 442.887 372.919 444.151 375.779 445.747C378.639 447.343 381.812 446.346 385.06 441.026C388.307 435.706 394.29 432.635 393.211 429.349C392.136 426.064 386.128 424.246 386.128 424.246C386.128 424.246 383.614 428.623 380.362 431.1Z" fill="#434347"/>
<path d="M426.104 389.516C426.104 389.516 432.413 399.1 419.622 405.6C406.828 412.1 392.248 418.896 392.248 418.896C392.248 418.896 394.947 424.053 394.534 434.927C394.119 445.803 394.379 454.134 394.379 454.134C394.379 454.134 395.572 456.904 390.084 456.876C384.596 456.848 384.377 455.768 384.377 455.768C384.377 455.768 382.026 430.338 380.132 422.722C378.239 415.106 376.232 408.46 379.475 403.548C382.717 398.636 403.897 388.884 403.897 388.884C403.897 388.884 417.399 394.076 426.104 389.516Z" fill="#2F2F33"/>
<path d="M404.714 335.947C404.714 335.947 397.498 342.139 395.122 348.789C392.746 355.437 391.362 365.781 390.034 367.547C388.704 369.314 381.199 373.397 381.199 373.397C381.199 373.397 384.62 374.063 385.188 376.247C385.759 378.432 385.568 379.191 385.568 379.191C385.568 379.191 394.972 374.537 396.396 371.593C397.821 368.649 402.16 360.953 402.16 360.953L404.714 335.947Z" fill="#F5A548"/>
<path d="M404.712 335.948C404.712 335.948 401.732 338.844 400.083 341.426C398.434 344.008 395.329 349.124 395.837 350.597C396.344 352.071 398.256 354.671 398.383 355.433C398.51 356.195 397.256 383.778 397.256 383.778C397.256 383.778 400.226 389.378 411.136 391.096C422.193 392.837 427.72 390.326 427.72 390.326C427.72 390.326 424.082 382.338 426.494 373.452C428.905 364.566 431.923 351.9 429.512 348.55C427.1 345.201 408.52 334.235 404.712 335.948Z" fill="#FFB156"/>
<path d="M406.704 316.236C406.704 316.236 396.933 318.622 400.788 329.863C401.812 332.853 398.277 334.599 399.86 337.681C401.443 340.763 411.759 341.497 411.776 341.403C411.794 341.311 413.864 321.362 413.864 321.362L406.704 316.236Z" fill="#E33D15"/>
<path d="M406.279 319.489C406.279 319.489 403.067 320.634 403.297 329.132C403.445 334.689 405.464 336.777 406.539 337.628C407.615 338.479 409.111 338.543 409.111 338.543L408.655 341.824C408.655 341.824 408.199 344.255 412.471 345.229C416.74 346.203 419.781 341.627 419.781 341.627C419.781 341.627 419.029 338.094 419.764 334.712C420.498 331.329 421.267 322.777 417.831 320.858C414.393 318.939 406.279 319.489 406.279 319.489Z" fill="#FFBDBD"/>
<path d="M409.106 338.542C409.106 338.542 411.852 338.621 413.256 337.372C414.661 336.123 415.084 335.792 415.084 335.792C415.084 335.792 414.339 337.449 412.774 339.113C411.209 340.78 411.617 344.994 411.617 344.994C411.617 344.994 408.405 344.364 408.65 342.346C408.892 340.329 409.106 338.542 409.106 338.542Z" fill="#EAA2A2"/>
<path d="M404.346 321.735C404.346 321.735 404.453 324.717 409.201 326.481C413.861 328.212 415.765 328.847 415.765 328.847C415.765 328.847 416.38 326.588 417.567 327.633C419.326 329.183 415.212 333.978 416.357 336.896C417.499 339.815 417.853 341.954 424.162 344.712C430.471 347.472 431.564 355.109 431.564 355.109C431.564 355.109 439.331 355.96 441.541 351.273C443.83 346.422 441.408 341.51 434.258 339.619C427.108 337.727 425.077 334.946 425.997 330.243C427.129 324.46 425.847 317.07 417.501 314.264C409.156 311.462 404.233 317.266 404.346 321.735Z" fill="#E33D15"/>
<path d="M364.212 356.715L397.36 375.636V404.106L364.212 385.185L362.895 357.36L364.212 356.715Z" fill="#47474B"/>
<path d="M362.895 357.359L396.042 376.281V404.751L362.895 385.829V357.359Z" fill="#434347"/>
<path d="M396.043 404.751L416.624 391.032L396.043 378.978V404.751Z" fill="#515156"/>
<path d="M416.624 391.032V392.464L396.043 404.751V376.281L397.361 375.636V402.803L416.624 391.032Z" fill="#47474B"/>
<path d="M397.359 387.313L405.483 392.292L397.359 397V387.313Z" fill="#5B5B61"/>
<path d="M429.515 349.384C427.445 348.68 423.754 350.984 423.566 357.918C423.375 364.851 423.566 374.303 423.566 374.303L407.703 384.609C407.703 384.609 411.027 384.894 412.072 387.173C413.117 389.452 413.306 390.329 413.306 390.329C413.306 390.329 431.638 380.145 432.304 377.578C432.969 375.014 433.757 350.824 429.515 349.384Z" fill="#F5A548"/>
<path d="M409.093 384.901C409.093 384.901 405.382 386.765 402.922 388.376C400.462 389.984 399.325 393.675 399.419 394.055C399.514 394.435 402.44 396.612 403.342 396.612C404.245 396.612 406.613 393.204 408.504 392.069C410.398 390.932 412.649 388.498 412.649 388.498C412.649 388.498 412.899 385.592 409.093 384.901Z" fill="#FFBDBD"/>
<path d="M394.32 455.452C394.32 455.452 396.461 459.648 395.594 460.777C394.73 461.906 386.512 466.362 384.371 468.957C382.23 471.549 378.039 471.284 375.778 469.423C373.517 467.563 373.675 465.964 377.754 462.707C381.832 459.449 384.371 455.771 384.371 455.771C384.371 455.771 390.045 458.297 394.32 455.452Z" fill="#434347"/>
<path d="M290.373 200.396L215.539 164.837V324.66L288.298 361.677L290.373 360.222V200.396Z" fill="#38383E"/>
<path d="M288.299 201.851L213.465 166.292V326.116L288.299 361.677V201.851Z" fill="#29292D"/>
<path d="M213.465 166.292L288.299 201.851V211.333L213.465 175.774V166.292Z" fill="#2F2F33"/>
<g opacity="0.56">
<path d="M282.477 253.436L254.476 239.99C254.096 239.806 253.785 239.348 253.785 238.965C253.785 238.585 254.096 238.422 254.476 238.606L282.477 252.052C282.857 252.235 283.168 252.694 283.168 253.077C283.168 253.456 282.857 253.619 282.477 253.436Z" fill="#333337"/>
<path d="M282.477 248.501L254.476 235.055C254.096 234.872 253.785 234.413 253.785 234.031C253.785 233.651 254.096 233.488 254.476 233.671L282.477 247.117C282.857 247.301 283.168 247.76 283.168 248.142C283.168 248.522 282.857 248.682 282.477 248.501Z" fill="#333337"/>
<path d="M282.477 257.448L254.476 244.002C254.096 243.818 253.785 243.359 253.785 242.977C253.785 242.597 254.096 242.434 254.476 242.617L282.477 256.064C282.857 256.247 283.168 256.706 283.168 257.088C283.168 257.468 282.857 257.629 282.477 257.448Z" fill="#333337"/>
</g>
<g opacity="0.56">
<path d="M247.618 214.533L219.617 201.087C219.237 200.903 218.926 200.444 218.926 200.062C218.926 199.682 219.237 199.519 219.617 199.702L247.618 213.149C247.997 213.332 248.308 213.791 248.308 214.173C248.308 214.553 247.997 214.714 247.618 214.533Z" fill="#3A3A3E"/>
<path d="M247.618 209.595L219.617 196.149C219.237 195.966 218.926 195.507 218.926 195.124C218.926 194.745 219.237 194.581 219.617 194.765L247.618 208.211C247.997 208.395 248.308 208.853 248.308 209.236C248.308 209.616 247.997 209.779 247.618 209.595Z" fill="#3A3A3E"/>
<path d="M247.618 218.542L219.617 205.096C219.237 204.913 218.926 204.454 218.926 204.072C218.926 203.692 219.237 203.529 219.617 203.712L247.618 217.158C247.997 217.342 248.308 217.801 248.308 218.183C248.308 218.565 247.997 218.726 247.618 218.542Z" fill="#3A3A3E"/>
</g>
<path d="M237.387 235.98L221.351 228.542C220.015 227.923 218.922 226.322 218.922 224.986C218.922 223.65 220.015 223.064 221.351 223.684L237.387 231.122C238.723 231.741 239.816 233.342 239.816 234.677C239.816 236.016 238.723 236.602 237.387 235.98Z" fill="#00FFA3"/>
<g opacity="0.56">
<path d="M247.614 254.353L219.613 240.907C219.233 240.723 218.922 240.265 218.922 239.882C218.922 239.502 219.233 239.339 219.613 239.523L247.614 252.969C247.993 253.152 248.304 253.611 248.304 253.994C248.304 254.373 247.993 254.534 247.614 254.353Z" fill="#3A3A40"/>
<path d="M247.614 249.415L219.613 235.969C219.233 235.786 218.922 235.327 218.922 234.945C218.922 234.565 219.233 234.402 219.613 234.585L247.614 248.031C247.993 248.215 248.304 248.674 248.304 249.056C248.304 249.436 247.993 249.599 247.614 249.415Z" fill="#3A3A40"/>
<path d="M247.614 258.362L219.613 244.916C219.233 244.732 218.922 244.273 218.922 243.891C218.922 243.511 219.233 243.348 219.613 243.532L247.614 256.978C247.993 257.161 248.304 257.62 248.304 258.002C248.304 258.385 247.993 258.545 247.614 258.362Z" fill="#3A3A40"/>
</g>
<path d="M285.12 240.866L253.785 226.138V201.662L285.12 216.39V240.866Z" fill="#333337"/>
<path d="M279.118 290.041C279.118 291.493 277.619 292.461 276.296 291.864L261.178 285.049C260.461 284.726 260 284.012 260 283.226V273.291C260 271.839 261.498 270.871 262.822 271.468L277.94 278.283C278.657 278.606 279.118 279.32 279.118 280.106V290.041Z" fill="#333338"/>
<g opacity="0.56">
<path d="M247.618 304.513L219.617 291.067C219.237 290.884 218.926 290.425 218.926 290.042C218.926 289.663 219.237 289.499 219.617 289.683L247.618 303.129C247.997 303.313 248.308 303.771 248.308 304.154C248.308 304.533 247.997 304.694 247.618 304.513Z" fill="#333337"/>
<path d="M247.618 299.576L219.617 286.13C219.237 285.946 218.926 285.487 218.926 285.105C218.926 284.725 219.237 284.562 219.617 284.745L247.618 298.191C247.997 298.375 248.308 298.834 248.308 299.216C248.308 299.596 247.997 299.759 247.618 299.576Z" fill="#333337"/>
<path d="M247.618 308.523L219.617 295.077C219.237 294.893 218.926 294.434 218.926 294.052C218.926 293.672 219.237 293.509 219.617 293.693L247.618 307.139C247.997 307.322 248.308 307.781 248.308 308.163C248.308 308.546 247.997 308.706 247.618 308.523Z" fill="#333337"/>
</g>
<path d="M237.387 325.96L221.351 318.522C220.015 317.903 218.922 316.302 218.922 314.967C218.922 313.631 220.015 313.045 221.351 313.664L237.387 321.102C238.723 321.721 239.816 323.322 239.816 324.658C239.816 325.996 238.723 326.582 237.387 325.96Z" fill="#2D2F4F"/>
<path d="M285.12 342.827L253.785 328.099V303.623L285.12 318.351V342.827Z" fill="#313135"/>
<path d="M255.691 224.499V205.094L283.211 218.027V237.436L255.691 224.499Z" fill="#29292D"/>
<path d="M255.691 219.702L261.597 215.46L268.049 225.343L275.66 217.726L283.211 230.639V237.435L255.691 224.499V219.702Z" fill="#333337"/>
<path d="M219.095 174.075C219.136 174.503 218.794 174.671 218.333 174.452C217.871 174.233 217.466 173.705 217.425 173.277C217.384 172.849 217.726 172.681 218.187 172.9C218.649 173.122 219.057 173.647 219.095 174.075Z" fill="#FF6051"/>
<path d="M222.317 175.877C222.358 176.305 222.017 176.473 221.555 176.254C221.094 176.035 220.689 175.507 220.648 175.079C220.607 174.651 220.949 174.482 221.41 174.702C221.871 174.923 222.277 175.448 222.317 175.877Z" fill="#FEBE05"/>
<path d="M225.532 177.679C225.573 178.108 225.232 178.276 224.77 178.057C224.309 177.837 223.903 177.31 223.863 176.882C223.822 176.453 224.163 176.285 224.625 176.504C225.086 176.724 225.494 177.251 225.532 177.679Z" fill="#1ECB3D"/>
<path d="M231.059 177.531L268.476 195.311V199.167L231.059 181.388V177.531Z" fill="#38383D"/>
<path d="M290.374 200.396L288.299 201.851L213.465 166.292L215.54 164.837L290.374 200.396Z" fill="#38383E"/>
<path d="M288.297 211.334L290.372 209.749V200.396L288.297 201.852V211.334Z" fill="#38383E"/>
<path d="M239.986 264.127C239.986 264.127 240.947 272.317 240.667 273.525C240.386 274.734 239.785 275.121 239.785 275.121C239.785 275.121 241.087 277.79 240.621 280.127C240.154 282.465 238.176 288.988 237.218 289.875C236.26 290.759 231.58 290.882 231.58 290.882L231.169 295.602L218.465 289.74C218.465 289.74 219.433 279.617 219.365 279.386C219.296 279.151 228.87 260.25 228.87 260.25L239.986 264.127Z" fill="url(#paint1_linear_12333_57217)"/>
<path d="M242.881 264.203C239.312 267.769 236.108 269.163 235.986 272.589C235.864 276.015 236.434 278.411 235.425 278.956C234.416 279.502 235.374 276.588 232.744 276.448C230.113 276.308 231.263 280.725 231.706 281.997C232.15 283.269 229.98 283.963 224.882 284.312C219.784 284.661 218.854 282.201 218.275 280.741C217.697 279.28 215.418 273.091 216.412 269.742C217.406 266.392 219.231 265.694 219.231 265.694C219.231 265.694 218.956 259.744 225.678 259.449C232.399 259.15 237.653 261.549 240.63 260.749C243.605 259.948 242.881 264.203 242.881 264.203Z" fill="#E33D15"/>
<path d="M208.261 435.777C208.261 435.777 207.269 440.924 208.261 442.593C209.253 444.263 215.597 445.933 218.268 444.151C220.94 442.369 225.836 440.256 228.064 439.476C230.29 438.696 232.293 434.801 227.509 434.467C222.724 434.133 220.313 434.648 220.313 434.648L208.261 435.777Z" fill="#4B4F6D"/>
<path d="M208.261 435.777C208.261 435.777 207.269 440.924 208.261 442.593C209.253 444.263 215.597 445.933 218.268 444.151C220.94 442.369 225.836 440.256 228.064 439.476C230.29 438.696 232.293 434.801 227.509 434.467C222.724 434.133 220.313 434.648 220.313 434.648L208.261 435.777Z" fill="#434347"/>
<path d="M205.794 342.101C205.794 342.101 201.958 351.206 202.817 356.113C204.01 362.934 213.992 391.297 213.992 391.297C213.992 391.297 209.322 402.296 207.568 411.386C205.814 420.475 207.568 435.193 207.568 435.193C207.568 435.193 209.085 437.11 213.992 437.243C218.899 437.375 220.316 434.648 220.316 434.648C220.316 434.648 221.081 409.716 226.53 399.285C231.983 388.855 226.53 347.153 226.53 347.153L205.794 342.101Z" fill="#2B2B30"/>
<path d="M207.749 283.57C207.749 283.57 244.75 301.148 244.503 303.213C244.256 305.278 239.571 348.221 239.571 348.221C239.571 348.221 227.731 353.778 218.602 351.729C209.474 349.677 204.542 340.057 204.542 340.057C204.542 340.057 202.816 296.79 202.816 291.044C202.816 285.299 207.749 283.57 207.749 283.57Z" fill="#FFB156"/>
<path d="M242.268 409.309C242.268 409.309 240.533 414.091 241.46 415.018C242.388 415.946 244.82 418.087 247.31 416.872C249.801 415.656 262.599 406.563 262.658 405.057C262.717 403.55 259.648 402.046 257.794 402.22C255.941 402.393 250.961 403.9 250.961 403.9L242.268 409.309Z" fill="#434347"/>
<path d="M217.545 351.448C217.545 351.448 213.423 360.459 222.816 365.676C232.207 370.894 246.818 374.254 246.818 374.254C246.818 374.254 244.254 378.172 243.239 387.993C242.225 397.817 241.098 409.086 241.098 409.086C241.098 409.086 244.149 410.129 247.883 408.044C251.618 405.956 252.451 403.244 252.451 403.244C252.451 403.244 261.717 369.225 261.885 364.634C262.053 360.043 239.569 348.221 239.569 348.221C239.569 348.221 229.806 352.873 217.545 351.448Z" fill="#2F2F33"/>
<path d="M244.505 303.212C240.816 302.43 235.943 307.079 235.647 312.213C235.351 317.347 263.709 330.048 267.403 328.868C271.096 327.688 292.671 305.239 292.671 305.239C292.671 305.239 294.552 302.047 291.684 299.284C288.817 296.521 285.309 296.238 285.309 296.238C285.309 296.238 269.174 312.119 267.255 312.593C265.335 313.067 244.505 303.212 244.505 303.212Z" fill="#F5A548"/>
<path d="M287.934 296.912C287.934 296.912 287.967 293.185 289.172 291.044C290.378 288.903 291.681 287.238 291.681 287.238C291.681 287.238 292.889 288.599 291.936 290.863C290.982 293.127 294.429 287.44 295.721 289.076C297.013 290.713 297.013 294.419 295.721 297.865C294.429 301.311 292.973 301.916 292.973 301.916C292.973 301.916 290.559 297.587 287.934 296.912Z" fill="url(#paint2_linear_12333_57217)"/>
<path d="M121.296 350.804C115.977 349.848 109.404 351.193 103.665 351.711C97.926 351.193 91.3533 349.854 86.0343 350.804C83.8313 355.344 83.4844 362.099 84.7685 366.986C86.0526 371.873 89.1381 376.261 93.2825 379.103C95.516 380.637 98.0234 381.695 100.646 382.371H106.683C109.3 381.702 111.814 380.637 114.047 379.103C118.192 376.261 121.277 371.873 122.561 366.986C123.845 362.105 123.499 355.35 121.296 350.804Z" fill="#4991FF"/>
<path d="M103.682 356.498C113.692 356.498 121.806 354.255 121.806 351.489C121.806 348.723 113.692 346.48 103.682 346.48C93.6728 346.48 85.5586 348.723 85.5586 351.489C85.5586 354.255 93.6728 356.498 103.682 356.498Z" fill="#121316"/>
<path d="M103.674 356.797C94.6122 356.797 85.2461 354.813 85.2461 351.484C85.2461 348.161 94.6182 346.177 103.674 346.177C112.736 346.177 122.102 348.161 122.102 351.484C122.102 354.813 112.73 356.797 103.674 356.797ZM103.674 346.785C93.0116 346.785 85.8547 349.214 85.8547 351.484C85.8547 353.754 93.0177 356.188 103.674 356.188C114.33 356.188 121.493 353.754 121.493 351.484C121.493 349.214 114.336 346.785 103.674 346.785Z" fill="#4991FF"/>
<path d="M93.8926 353.064C93.8926 353.064 69.543 338.223 73.4179 323.842C77.2927 309.461 87.6109 310.486 90.8315 318.614C94.8527 328.765 100.258 320.901 97.7705 306.349C94.3288 286.225 104.956 282.64 112.704 286.225C120.451 289.81 106.653 307.946 115.897 309.154C120.569 309.765 123.343 292.337 130.394 294.225C136.406 295.841 137.696 297.5 135.301 305.555C132.907 313.611 131.66 334.745 121.7 344.257C111.74 353.77 108.834 353.064 108.834 353.064H93.8926Z" fill="url(#paint3_linear_12333_57217)"/>
<path d="M107.387 285.387C106.936 290.131 106.422 294.866 105.887 299.599C105.374 304.14 104.843 308.678 104.346 313.222C103.87 317.566 103.424 321.915 103.067 326.274C102.727 330.434 102.468 334.605 102.356 338.781C102.25 342.757 102.278 346.74 102.512 350.712C102.541 351.207 102.573 351.7 102.608 352.194C102.642 352.655 103.28 352.664 103.247 352.194C102.974 348.229 102.878 344.251 102.961 340.275C103.036 336.121 103.265 331.971 103.582 327.833C103.913 323.496 104.343 319.17 104.808 314.848C105.293 310.328 105.819 305.814 106.333 301.298C106.866 296.61 107.386 291.921 107.848 287.223C107.909 286.613 107.968 286.001 108.026 285.39C108.07 284.927 107.431 284.93 107.387 285.39V285.387Z" fill="#00FFA3"/>
<path d="M77.8699 316.55C79.5758 318.494 81.1725 320.53 82.6531 322.648C84.2643 324.926 85.7782 327.271 87.2295 329.651C88.7266 332.101 90.1535 334.59 91.5392 337.102C92.8841 339.538 94.194 341.992 95.469 344.465C96.7079 346.856 97.8896 349.283 99.1444 351.66C99.3265 352.006 99.5152 352.349 99.7105 352.689C99.9397 353.088 100.564 352.729 100.333 352.329C99.5963 351.05 98.96 349.716 98.2938 348.402C97.7069 347.247 97.1168 346.093 96.5235 344.94C95.2585 342.486 93.9663 340.047 92.647 337.621C91.2716 335.105 89.8559 332.611 88.3776 330.155C86.9188 327.729 85.3993 325.337 83.7853 323.013C82.2976 320.846 80.6993 318.756 78.9965 316.751C78.7931 316.514 78.5882 316.279 78.3817 316.046C78.0748 315.699 77.5658 316.206 77.8718 316.551L77.8699 316.55Z" fill="#00FFA3"/>
<path d="M133.118 296.031C130.88 299.418 128.966 303.013 127.154 306.634C125.257 310.43 123.489 314.287 121.732 318.148C120.05 321.851 118.309 325.527 116.642 329.236C114.59 333.798 112.726 338.444 111.155 343.189C110.57 344.958 110.085 346.749 109.483 348.506C109.072 349.708 108.657 350.913 108.185 352.093L108.14 352.204C108.102 352.297 108.146 352.178 108.131 352.227C108.088 352.364 108.013 352.297 108.205 352.202L108.487 352.165L108.738 352.416C108.661 352.229 108.498 352.108 108.292 352.162C108.121 352.207 107.964 352.425 108.039 352.604C108.176 352.931 108.557 352.946 108.732 352.649C108.808 352.499 108.872 352.344 108.925 352.184C109.146 351.619 109.352 351.047 109.558 350.476C110.034 349.151 110.472 347.82 110.878 346.473C112.353 341.561 114.161 336.75 116.193 332.043C117.895 328.098 119.765 324.223 121.543 320.313C123.321 316.403 125.087 312.493 126.972 308.639C128.817 304.864 130.754 301.117 132.998 297.556C133.243 297.167 133.493 296.78 133.75 296.395C134.005 296.008 133.374 295.65 133.124 296.033L133.118 296.031Z" fill="#00FFA3"/>
</g>
<defs>
<linearGradient id="paint0_linear_12333_57217" x1="215.484" y1="552.689" x2="273.749" y2="190.988" gradientUnits="userSpaceOnUse">
<stop stop-color="white"/>
<stop offset="0.9952" stop-color="#808080"/>
</linearGradient>
<linearGradient id="paint1_linear_12333_57217" x1="219.57" y1="277.019" x2="240.761" y2="278.863" gradientUnits="userSpaceOnUse">
<stop stop-color="#FFD9D9"/>
<stop offset="1" stop-color="#EFB4B4"/>
</linearGradient>
<linearGradient id="paint2_linear_12333_57217" x1="287.933" y1="294.575" x2="296.69" y2="294.575" gradientUnits="userSpaceOnUse">
<stop stop-color="#FFD9D9"/>
<stop offset="1" stop-color="#EFB4B4"/>
</linearGradient>
<linearGradient id="paint3_linear_12333_57217" x1="104.718" y1="285" x2="104.718" y2="353.076" gradientUnits="userSpaceOnUse">
<stop stop-color="#00FFA3"/>
<stop offset="1" stop-color="#00FFA3" stop-opacity="0"/>
</linearGradient>
<clipPath id="clip0_12333_57217">
<rect width="520" height="520" fill="white"/>
</clipPath>
</defs>
</svg>
