<svg width="520" height="420" viewBox="0 0 520 420" fill="none" xmlns="http://www.w3.org/2000/svg">
<g clip-path="url(#clip0_12452_62625)">
<path opacity="0.05" d="M51.3227 10.0829L180.972 10.0654C183.4 10.0654 185.653 12.0552 186.002 14.4987L190.474 45.8459C190.823 48.2895 189.146 50.2792 186.718 50.2792L57.069 50.2967C54.6412 50.2967 52.3882 48.3069 52.0388 45.8634L47.5676 14.5162C47.2182 12.0726 48.895 10.0829 51.3227 10.0829Z" fill="white"/>
<path d="M82.4664 29.7372C81.6979 34.6767 77.0869 38.6736 72.1441 38.6736C67.2012 38.6736 63.8129 34.6767 64.5814 29.7372C65.3499 24.7977 69.9609 20.8008 74.9037 20.8008C79.8466 20.8008 83.2349 24.7977 82.4664 29.7372Z" fill="#2A2B2F"/>
<path d="M71.4978 34.1879L68.1094 30.1735L69.856 28.6376L71.8296 30.8717L77.803 25.7402L79.2177 27.5031L71.4978 34.1879Z" fill="#323337"/>
<path d="M168.148 25.3928C167.99 26.2502 167.243 26.8727 166.371 26.8727H100.448C99.3552 26.8727 98.5151 25.906 98.6675 24.824C98.7925 23.9368 99.5515 23.277 100.447 23.2768L166.371 23.2603C167.499 23.26 168.351 24.283 168.148 25.3928Z" fill="#2A2B2F"/>
<path d="M148.553 34.1732C148.395 35.0305 147.648 35.653 146.776 35.653H99.2097C98.1169 35.653 97.2768 34.6863 97.4292 33.6042C97.5542 32.7171 98.3132 32.0573 99.2091 32.057L146.776 32.0408C147.904 32.0404 148.756 33.0633 148.553 34.1732Z" fill="#2A2B2F"/>
<path d="M246.138 179.976L227.219 405.213C227.219 405.213 225.237 418.867 235.38 418.891C252.057 418.931 318.388 418.891 318.388 418.891C318.388 418.891 305.836 416.049 305.988 409.654C306.168 402.116 328.101 177.845 328.101 177.845L246.138 179.976Z" fill="#29292D"/>
<path d="M323.771 414.804C320.491 414.814 257.137 415.013 240.896 414.804C233.818 414.716 232.577 408.503 232.518 404.482C232.489 402.554 232.733 401.129 232.733 401.129L233.225 395.275L234.479 380.354L235.586 367.172L237.01 350.232L238.209 335.934L251.651 175.887L333.615 173.758C333.615 173.758 324.377 267.614 317.843 335.934C317.113 343.546 316.42 350.845 315.778 357.658C315.57 359.833 315.371 361.96 315.175 364.031C314.569 370.495 314.016 376.431 313.534 381.671C313.28 384.434 313.045 387.001 312.833 389.352C312 398.566 311.511 404.449 311.504 405.568C311.501 406.22 311.557 406.827 311.664 407.391C313.009 414.569 322.54 414.804 323.771 414.804Z" fill="#303035"/>
<path d="M47.0859 57.4102L93.1698 242.752L99.4795 268.136L120.943 354.463H519.703L440.592 57.4102H47.0859Z" fill="#29292E"/>
<path d="M47.0858 57.4102L40.6992 59.5417L112.453 360.911L120.944 354.464L47.0858 57.4102Z" fill="#333337"/>
<path d="M112.453 360.911H508.759L519.703 354.464H120.945L112.453 360.911Z" fill="#2F2F33"/>
<path d="M251.624 418.977H337.43V414.894H251.624V418.977Z" fill="#29292D"/>
<path d="M315.616 360.909L315.173 364.03L234.477 380.353L235.584 367.171L236.112 360.909H315.616Z" fill="#2E2E33"/>
<path opacity="0.4" d="M323.773 414.804C320.493 414.814 257.138 415.013 240.897 414.804C233.819 414.716 232.578 408.503 232.52 404.482L312.835 389.353C312.001 398.566 311.512 404.449 311.506 405.568C311.502 406.221 311.558 406.827 311.666 407.391C313.011 414.57 322.542 414.804 323.773 414.804Z" fill="#2F2F33"/>
<path d="M296.113 294.328L120.945 354.464L99.4805 268.136L296.113 294.328Z" fill="#2B2B2F"/>
<path d="M47.0859 57.4102H440.592L504.439 296.147H106.445L47.0859 57.4102Z" fill="#2F2F33"/>
<path d="M328.947 334.176C332.514 330.242 331.537 323.537 326.765 319.202C321.994 314.866 315.234 314.541 311.668 318.476C308.102 322.411 309.079 329.115 313.851 333.451C318.622 337.786 325.381 338.111 328.947 334.176Z" fill="#2E2E33"/>
<path d="M485.88 285.802H117.439L75.7139 119.373L72.5158 106.61L69.7856 95.7243L63.3867 70.1982H426.518L433.545 95.7243L436.542 106.61L440.056 119.373L485.88 285.802Z" fill="#29292D"/>
<path d="M433.545 95.7243H69.7856L63.3867 70.1982H426.518L433.545 95.7243Z" fill="#343437"/>
<path d="M78.4108 81.7339C77.9721 79.9716 79.0431 78.543 80.8031 78.543C82.5633 78.543 84.3458 79.9716 84.7847 81.7339C85.2235 83.4962 84.1524 84.9249 82.3923 84.9249C80.6322 84.9249 78.8496 83.4962 78.4108 81.7339Z" fill="#FF6051"/>
<path d="M89.0007 81.7339C88.5618 79.9716 89.633 78.543 91.3931 78.543C93.1532 78.543 94.9357 79.9716 95.3746 81.7339C95.8135 83.4962 94.7425 84.9249 92.9822 84.9249C91.2221 84.9249 89.4396 83.4962 89.0007 81.7339Z" fill="#FEBE05"/>
<path d="M100.403 81.7339C99.9642 79.9716 101.035 78.543 102.795 78.543C104.556 78.543 106.338 79.9716 106.777 81.7339C107.216 83.4962 106.145 84.9249 104.385 84.9249C102.624 84.9249 100.842 83.4962 100.403 81.7339Z" fill="#1ECB3D"/>
<path d="M404.717 271.037H131.802L90.2695 107.846H359.334L404.717 271.037Z" fill="#2F2F33"/>
<path d="M440.01 145.817H378.153L366.844 107.846H429.45L440.01 145.817Z" fill="#2F2F33"/>
<path d="M273.136 123.739H237.745L236.289 118.275H271.68L273.136 123.739Z" fill="#343439"/>
<path d="M335.883 123.739H277.984L276.527 118.275H334.426L335.883 123.739Z" fill="#343439"/>
<path d="M279.084 138.458H216.32L214.863 132.995H277.628L279.084 138.458Z" fill="#343439"/>
<path d="M317.259 138.458H284.726L283.27 132.995H315.802L317.259 138.458Z" fill="#343439"/>
<path d="M283.812 163.802H248.421L246.965 158.339H282.356L283.812 163.802Z" fill="#343439"/>
<path d="M346.562 163.802H288.663L287.207 158.339H345.106L346.562 163.802Z" fill="#343439"/>
<path d="M289.764 178.523H226.999L225.543 173.06H288.308L289.764 178.523Z" fill="#343439"/>
<path d="M327.942 178.523H295.409L293.953 173.06H326.486L327.942 178.523Z" fill="#343439"/>
<path d="M251.757 201.308H132.019L130.562 195.845H250.301L251.757 201.308Z" fill="#343439"/>
<path d="M294.804 201.308H259.413L257.957 195.845H293.348L294.804 201.308Z" fill="#343439"/>
<path d="M357.55 201.308H299.652L298.195 195.845H356.094L357.55 201.308Z" fill="#343439"/>
<path d="M171.336 216.029H135.945L134.488 210.565H169.879L171.336 216.029Z" fill="#343439"/>
<path d="M300.752 216.029H237.988L236.531 210.565H299.296L300.752 216.029Z" fill="#343439"/>
<path d="M234.086 216.029H176.187L174.73 210.565H232.629L234.086 216.029Z" fill="#343439"/>
<path d="M338.93 216.029H306.398L304.941 210.565H337.474L338.93 216.029Z" fill="#343439"/>
<path d="M265.351 241.946H145.613L144.156 236.483H263.895L265.351 241.946Z" fill="#343439"/>
<path d="M308.398 241.946H273.007L271.551 236.483H306.942L308.398 241.946Z" fill="#343439"/>
<path d="M184.929 256.667H149.538L148.082 251.204H183.473L184.929 256.667Z" fill="#343439"/>
<path d="M314.346 256.667H251.581L250.125 251.204H312.89L314.346 256.667Z" fill="#343439"/>
<path d="M247.679 256.667H189.78L188.324 251.204H246.223L247.679 256.667Z" fill="#343439"/>
<path d="M352.524 256.667H319.991L318.535 251.204H351.068L352.524 256.667Z" fill="#343439"/>
<path d="M409.214 157.564L381.993 157.648L381.391 155.173L408.612 155.089L409.214 157.564Z" fill="#303035"/>
<path d="M423.573 157.52L413.337 157.552L412.734 155.076L422.97 155.045L423.573 157.52Z" fill="#303035"/>
<path d="M444.318 157.456L426.228 157.512L425.625 155.036L443.716 154.98L444.318 157.456Z" fill="#303035"/>
<path d="M398.44 163.861L383.516 163.907L382.914 161.432L397.838 161.386L398.44 163.861Z" fill="#303035"/>
<path d="M420.199 163.794L400.927 163.853L400.324 161.378L419.597 161.318L420.199 163.794Z" fill="#303035"/>
<path d="M445.842 163.714L423.755 163.783L423.152 161.307L445.24 161.239L445.842 163.714Z" fill="#303035"/>
<path d="M412.472 170.937L385.251 171.021L384.648 168.546L411.87 168.462L412.472 170.937Z" fill="#303035"/>
<path d="M426.83 170.892L416.595 170.924L415.992 168.449L426.228 168.417L426.83 170.892Z" fill="#303035"/>
<path d="M447.575 170.829L429.485 170.885L428.883 168.409L446.973 168.354L447.575 170.829Z" fill="#303035"/>
<path d="M401.698 177.234L386.774 177.28L386.172 174.805L401.095 174.759L401.698 177.234Z" fill="#303035"/>
<path d="M423.457 177.167L404.185 177.226L403.582 174.751L422.855 174.691L423.457 177.167Z" fill="#303035"/>
<path d="M449.1 177.088L427.012 177.156L426.41 174.68L448.497 174.612L449.1 177.088Z" fill="#303035"/>
<path d="M391.126 113.117L374.734 113.167L374.371 111.677L390.764 111.626L391.126 113.117Z" fill="#35353A"/>
<path d="M399.773 113.09L393.609 113.109L393.246 111.619L399.41 111.6L399.773 113.09Z" fill="#35353A"/>
<path d="M412.265 113.051L401.371 113.085L401.008 111.594L411.902 111.561L412.265 113.051Z" fill="#35353A"/>
<path d="M384.639 116.909L375.652 116.936L375.289 115.446L384.276 115.418L384.639 116.909Z" fill="#35353A"/>
<path d="M397.742 116.868L386.136 116.903L385.773 115.413L397.379 115.377L397.742 116.868Z" fill="#35353A"/>
<path d="M413.183 116.82L399.883 116.861L399.52 115.37L412.82 115.329L413.183 116.82Z" fill="#35353A"/>
<path d="M393.087 121.169L376.695 121.22L376.332 119.729L392.724 119.679L393.087 121.169Z" fill="#35353A"/>
<path d="M401.734 121.142L395.57 121.161L395.207 119.67L401.371 119.651L401.734 121.142Z" fill="#35353A"/>
<path d="M414.225 121.104L403.332 121.138L402.969 119.647L413.863 119.613L414.225 121.104Z" fill="#35353A"/>
<path d="M386.6 124.961L377.613 124.989L377.25 123.499L386.237 123.471L386.6 124.961Z" fill="#35353A"/>
<path d="M399.703 124.92L388.097 124.956L387.734 123.465L399.34 123.43L399.703 124.92Z" fill="#35353A"/>
<path d="M415.144 124.872L401.843 124.914L401.48 123.423L414.781 123.382L415.144 124.872Z" fill="#35353A"/>
<path d="M418.035 193.786L390.814 193.87L390.211 191.395L417.432 191.311L418.035 193.786Z" fill="#303035"/>
<path d="M432.393 193.742L422.157 193.774L421.555 191.298L431.791 191.267L432.393 193.742Z" fill="#303035"/>
<path d="M453.138 193.678L435.048 193.733L434.445 191.258L452.536 191.202L453.138 193.678Z" fill="#303035"/>
<path d="M407.261 200.083L392.337 200.129L391.734 197.654L406.658 197.607L407.261 200.083Z" fill="#303035"/>
<path d="M429.02 200.015L409.747 200.075L409.145 197.6L428.417 197.54L429.02 200.015Z" fill="#303035"/>
<path d="M454.663 199.936L432.575 200.004L431.973 197.529L454.06 197.461L454.663 199.936Z" fill="#303035"/>
<path d="M423.484 216.18L396.263 216.264L395.66 213.789L422.881 213.705L423.484 216.18Z" fill="#303035"/>
<path d="M437.842 216.136L427.606 216.167L427.004 213.692L437.239 213.66L437.842 216.136Z" fill="#303035"/>
<path d="M458.588 216.072L440.497 216.128L439.895 213.652L457.985 213.597L458.588 216.072Z" fill="#303035"/>
<path d="M412.709 222.477L397.786 222.523L397.184 220.048L412.107 220.002L412.709 222.477Z" fill="#303035"/>
<path d="M434.469 222.41L415.196 222.47L414.594 219.994L433.866 219.935L434.469 222.41Z" fill="#303035"/>
<path d="M460.112 222.331L438.025 222.399L437.422 219.924L459.509 219.855L460.112 222.331Z" fill="#303035"/>
<path d="M428.398 236.356L401.177 236.44L400.574 233.965L427.795 233.881L428.398 236.356Z" fill="#303035"/>
<path d="M442.757 236.312L432.521 236.344L431.918 233.868L442.154 233.837L442.757 236.312Z" fill="#303035"/>
<path d="M463.502 236.248L445.411 236.304L444.809 233.828L462.899 233.772L463.502 236.248Z" fill="#303035"/>
<path d="M417.624 242.653L402.7 242.699L402.098 240.224L417.021 240.178L417.624 242.653Z" fill="#303035"/>
<path d="M439.383 242.586L420.111 242.645L419.508 240.17L438.78 240.11L439.383 242.586Z" fill="#303035"/>
<path d="M465.026 242.507L442.939 242.575L442.336 240.1L464.423 240.031L465.026 242.507Z" fill="#303035"/>
<path d="M441.218 266.365C436.844 266.365 432.246 262.802 430.969 258.422C429.692 254.042 432.212 250.479 436.587 250.479C440.961 250.479 445.559 254.042 446.836 258.422C448.113 262.802 445.593 266.365 441.218 266.365ZM437.01 251.929C433.434 251.929 431.374 254.842 432.418 258.422C433.461 262.002 437.22 264.915 440.796 264.915C444.371 264.915 446.431 262.002 445.387 258.422C444.343 254.842 440.585 251.929 437.01 251.929Z" fill="#303035"/>
<path d="M439.92 262.462C439.618 262.44 439.301 262.31 439.03 262.092L434.578 258.523C433.977 258.041 433.771 257.276 434.118 256.814C434.465 256.353 435.234 256.369 435.836 256.852L438.981 259.374L440.594 255.642C440.827 255.101 441.547 254.982 442.201 255.372C442.855 255.764 443.196 256.519 442.963 257.06L440.843 261.966C440.717 262.256 440.443 262.439 440.092 262.463C440.035 262.467 439.978 262.467 439.92 262.462Z" fill="#303035"/>
<path d="M463.121 266.365C458.746 266.365 454.148 262.802 452.871 258.422C451.594 254.042 454.114 250.479 458.489 250.479C462.863 250.479 467.461 254.042 468.738 258.422C470.015 262.802 467.495 266.365 463.121 266.365ZM458.912 251.929C455.336 251.929 453.276 254.842 454.32 258.422C455.364 262.002 459.122 264.915 462.698 264.915C466.273 264.915 468.333 262.002 467.289 258.422C466.246 254.842 462.487 251.929 458.912 251.929Z" fill="#303035"/>
<path d="M461.183 259.721C460.566 259.721 459.914 259.215 459.734 258.598L458.75 255.223C458.57 254.605 458.927 254.1 459.544 254.1C460.161 254.1 460.814 254.605 460.994 255.223L461.978 258.598C462.158 259.215 461.8 259.721 461.183 259.721Z" fill="#303035"/>
<path d="M462.077 262.369H461.835C461.284 262.369 460.702 261.918 460.542 261.367C460.381 260.816 460.7 260.365 461.25 260.365H461.493C462.043 260.365 462.625 260.816 462.785 261.367C462.946 261.918 462.627 262.369 462.077 262.369Z" fill="#303035"/>
<path d="M416.821 142.16C414.423 142.16 411.902 140.206 411.201 137.804C410.502 135.403 411.883 133.449 414.281 133.449C416.68 133.449 419.201 135.403 419.901 137.804C420.601 140.206 419.219 142.16 416.821 142.16ZM414.513 134.245C412.553 134.245 411.423 135.841 411.996 137.804C412.568 139.767 414.629 141.364 416.589 141.364C418.549 141.364 419.679 139.767 419.106 137.804C418.535 135.841 416.474 134.245 414.513 134.245Z" fill="#35353A"/>
<path d="M416.109 140.02C415.944 140.008 415.77 139.937 415.621 139.817L413.181 137.86C412.851 137.596 412.738 137.176 412.929 136.923C413.119 136.67 413.54 136.679 413.87 136.944L415.595 138.327L416.479 136.28C416.607 135.984 417.002 135.919 417.36 136.132C417.719 136.347 417.906 136.762 417.778 137.058L416.615 139.748C416.547 139.907 416.396 140.007 416.204 140.02C416.173 140.022 416.141 140.022 416.109 140.02Z" fill="#35353A"/>
<path d="M404.372 142.16C401.973 142.16 399.453 140.206 398.752 137.804C398.052 135.403 399.434 133.449 401.832 133.449C404.231 133.449 406.752 135.403 407.452 137.804C408.152 140.206 406.77 142.16 404.372 142.16ZM402.064 134.245C400.104 134.245 398.974 135.841 399.547 137.804C400.119 139.767 402.18 141.364 404.14 141.364C406.1 141.364 407.23 139.767 406.657 137.804C406.085 135.841 404.025 134.245 402.064 134.245Z" fill="#35353A"/>
<path d="M403.66 140.02C403.495 140.008 403.321 139.937 403.172 139.817L400.732 137.86C400.402 137.596 400.289 137.176 400.479 136.923C400.669 136.67 401.091 136.679 401.421 136.944L403.146 138.327L404.029 136.28C404.158 135.984 404.552 135.919 404.911 136.132C405.269 136.347 405.456 136.762 405.329 137.058L404.166 139.748C404.097 139.907 403.947 140.007 403.754 140.02C403.724 140.022 403.692 140.022 403.66 140.02Z" fill="#35353A"/>
<path d="M391.481 142.16C389.083 142.16 386.562 140.206 385.862 137.804C385.161 135.403 386.543 133.449 388.942 133.449C391.34 133.449 393.861 135.403 394.561 137.804C395.261 140.206 393.88 142.16 391.481 142.16ZM389.174 134.245C387.213 134.245 386.084 135.841 386.656 137.804C387.229 139.767 389.289 141.364 391.249 141.364C393.21 141.364 394.339 139.767 393.767 137.804C393.194 135.841 391.134 134.245 389.174 134.245Z" fill="#35353A"/>
<path d="M390.77 140.02C390.604 140.008 390.43 139.937 390.281 139.817L387.841 137.86C387.511 137.596 387.398 137.176 387.589 136.923C387.779 136.67 388.201 136.679 388.531 136.944L390.255 138.327L391.139 136.28C391.267 135.984 391.662 135.919 392.02 136.132C392.379 136.347 392.566 136.762 392.438 137.058L391.276 139.748C391.207 139.907 391.056 140.007 390.864 140.02C390.833 140.022 390.801 140.022 390.77 140.02Z" fill="#35353A"/>
<path d="M428.825 142.16C426.427 142.16 423.906 140.206 423.205 137.804C422.505 135.403 423.887 133.449 426.285 133.449C428.684 133.449 431.205 135.403 431.905 137.804C432.605 140.206 431.223 142.16 428.825 142.16ZM426.517 134.245C424.557 134.245 423.428 135.841 424 137.804C424.572 139.767 426.633 141.364 428.593 141.364C430.554 141.364 431.683 139.767 431.111 137.804C430.539 135.841 428.478 134.245 426.517 134.245Z" fill="#35353A"/>
<path d="M427.762 138.516C427.424 138.516 427.066 138.239 426.967 137.9L426.428 136.051C426.329 135.712 426.525 135.435 426.863 135.435C427.202 135.435 427.559 135.712 427.658 136.051L428.198 137.9C428.296 138.239 428.1 138.516 427.762 138.516Z" fill="#35353A"/>
<path d="M428.252 139.969H428.119C427.817 139.969 427.498 139.722 427.409 139.42C427.322 139.117 427.496 138.87 427.798 138.87H427.931C428.233 138.87 428.552 139.117 428.64 139.42C428.728 139.722 428.553 139.969 428.252 139.969Z" fill="#35353A"/>
<path d="M79.2428 289.238C79.2428 289.238 84.6066 290.618 88.0163 289.589C91.4259 288.561 97.2943 290.25 98.2393 291.495C99.1843 292.74 98.8372 293.234 97.1508 293.664C95.4645 294.094 89.4902 296.645 85.5634 295.168C81.6369 293.691 76.5156 293.638 76.5156 293.638L79.2428 289.238Z" fill="#E49963"/>
<path d="M32.8867 242.587C32.8867 242.587 38.9121 285.465 48.8894 289.306C53.8125 291.201 75.5698 295.497 82.0057 295.928C82.0057 295.928 83.5824 294.648 83.1983 289.435C83.1983 289.435 60.4031 281.056 57.1647 276.499C52.3451 269.717 60.1567 248.793 54.109 242.423C48.0614 236.053 37.8756 233.316 32.8867 242.587Z" fill="#F5A548"/>
<path d="M36.3641 412.595H39.2732C40.7647 412.595 41.9849 411.373 41.9849 409.879V342.292C41.9849 340.799 40.7647 339.577 39.2732 339.577H36.3641C34.8726 339.577 33.6523 340.799 33.6523 342.292V409.879C33.6523 411.373 34.8726 412.595 36.3641 412.595Z" fill="#242428"/>
<path d="M11.8789 417.256C14.6092 411.49 25.2338 407.19 37.9246 407.19C50.6154 407.19 61.2401 411.49 63.9703 417.256H11.8789Z" fill="#2B2B2F"/>
<path d="M18.9518 398.454H56.6846C57.0813 398.454 57.4059 398.129 57.4059 397.732V396.234C57.4059 395.837 57.0813 395.512 56.6846 395.512H18.9518C18.5551 395.512 18.2305 395.837 18.2305 396.234V397.732C18.2305 398.129 18.5551 398.454 18.9518 398.454Z" fill="#242428"/>
<path d="M83.6758 407.181C83.6758 407.181 84.3015 417.288 86.2543 417.432C86.5141 417.452 96.159 417.452 96.159 417.452L108.471 417.38C108.471 417.38 108.391 414.41 104.792 413.782C101.193 413.154 95.169 410.621 92.9888 405.859C90.6952 400.848 83.6758 407.181 83.6758 407.181Z" fill="#434347"/>
<path d="M34.9155 332.924C36.6733 335.909 38.7062 338.707 40.8016 341.356C47.2776 349.542 54.3271 356.291 55.5551 362.671C55.7991 363.942 56.187 365.312 56.6935 366.754C57.2065 368.216 57.8403 369.752 58.5721 371.341C61.3202 377.317 65.4298 384.015 69.5331 390.102C76.6264 400.626 83.2963 409.408 83.2963 409.408L95.5285 408.886C95.0384 407.658 89.7035 393.127 82.5665 375.37C79.6684 368.161 76.5868 360.493 73.6135 353.099C73.2174 352.111 72.8212 351.128 72.4291 350.153C71.5201 347.89 70.6256 345.663 69.7521 343.494C63.0508 326.82 57.7132 313.542 57.7132 313.542C57.7132 313.542 30.9291 303.384 28.1476 309.966C25.8541 315.394 27.7223 320.711 34.9155 332.924Z" fill="#2B2B30"/>
<path d="M55.3522 378.309C55.3522 378.309 46.8441 383.782 47.6697 385.56C47.7794 385.797 52.4813 394.228 52.4813 394.228L58.5457 404.957C58.5457 404.957 61.0965 403.439 59.8898 399.987C58.683 396.534 57.9548 390.033 61.0452 385.806C64.2963 381.358 55.3522 378.309 55.3522 378.309Z" fill="#434347"/>
<path d="M67.3315 309.021C67.3315 309.021 100.482 329.688 104.234 343.779C107.987 357.87 59.5131 387.93 59.5131 387.93C59.5131 387.93 54.1965 383.233 53.2583 379.789C53.2583 379.789 75.1693 353.505 79.9222 347.613C82.8413 343.995 36.762 335.087 31.1329 326.319C25.5035 317.552 27.5188 310.175 27.5188 310.175L67.3315 309.021Z" fill="#2F2F33"/>
<path d="M3.41605 354.434H72.2217C73.5978 354.434 74.7237 353.307 74.7237 351.929V338.151C74.7237 336.773 73.5978 335.646 72.2217 335.646H3.41605C2.03992 335.646 0.914062 336.773 0.914062 338.151V351.929C0.914063 353.307 2.03992 354.434 3.41605 354.434Z" fill="#434347"/>
<path d="M51.3153 235.237C54.6174 237.285 56.4371 239.884 56.4371 239.884C48.383 241.97 35.0312 234.497 35.0312 234.497C35.0312 234.497 40.2154 231.01 42.1359 223.346C42.2332 222.959 42.3217 222.563 42.3997 222.157C42.6516 220.866 42.8077 219.469 42.8358 217.961L46.5357 221.279L52.6878 226.798C52.6878 226.798 52.5482 229.088 51.7787 233.027C51.6448 233.714 51.4913 234.452 51.3153 235.237Z" fill="#E49963"/>
<path d="M26.5087 273.312C27.6622 288.848 26.1446 312.476 27.4534 316.568C28.5829 320.099 41.4523 318 46.5891 316.821C48.4905 316.385 50.7934 315.762 53.172 315.025C59.8065 312.968 67.0356 310.031 67.8112 307.85C67.8411 307.765 67.8668 307.681 67.8829 307.599C67.9543 307.283 67.9385 306.986 67.8689 306.685C67.6103 305.574 66.614 304.372 66.4967 301.62C66.3653 298.547 66.3853 294.929 66.27 291.038C66.264 290.6 66.258 290.122 66.2103 289.686L66.2084 289.527C66.2063 289.443 66.2043 289.362 66.2024 289.278C66.091 284.939 65.8643 280.377 65.6018 275.853C65.4346 273.011 65.2418 270.198 65.019 267.501C64.4402 260.542 63.6606 254.353 62.6286 250.44C60.9421 244.063 57.2231 239.903 53.8383 236.854L51.39 234.751C48.6575 235.349 45.4277 234.952 42.5062 233.566C39.3442 232.063 38.2524 230.986 37.7014 231.392C30.3986 237.033 25.1464 254.319 26.5087 273.312Z" fill="#FFB156"/>
<path d="M53.1687 315.025C59.8032 312.968 67.0323 310.031 67.808 307.85C67.8378 307.764 67.8636 307.681 67.8796 307.599C67.8755 307.295 67.8716 306.99 67.8656 306.685C67.607 305.574 66.6108 304.371 66.4934 301.62C66.362 298.547 66.382 294.929 66.2667 291.038C66.2607 290.6 66.2547 290.122 66.207 289.686L66.2051 289.526C66.2031 289.443 66.201 289.361 66.1991 289.278L41.1387 277.897C41.1387 277.897 39.6949 298.121 53.1687 315.025Z" fill="#F5A548"/>
<path d="M52.6884 226.798C52.6884 226.798 52.5489 229.088 51.7794 233.027C45.7718 231.083 43.0465 225.65 42.1366 223.346C41.8778 222.695 41.7656 222.292 41.7656 222.292C41.7656 222.292 41.9985 222.242 42.4003 222.157C43.2448 221.977 44.8351 221.64 46.5363 221.279L52.6884 226.798Z" fill="#D68D5D"/>
<path d="M55.1251 226.737C55.1251 226.737 41.9267 228.228 41.1262 219.984C40.3255 211.74 38.0829 206.38 46.4759 205.08C54.8688 203.78 56.814 206.766 57.7496 209.452C58.6854 212.139 58.5377 226.137 55.1251 226.737Z" fill="#E49963"/>
<path d="M41.1814 220.553C41.1814 220.553 42.0183 209.61 54.0324 208.476C62.2616 207.7 57.6735 200.609 56.7965 199.478C56.7965 199.478 50.4917 200.343 44.029 201.412C30.4647 203.656 39.8492 218.849 41.1814 220.553Z" fill="#E33D15"/>
<path d="M103.146 299.361L106.219 300.36L116.044 270.069L112.971 269.07L103.146 299.361Z" fill="#4A4A4F"/>
<path d="M72.8512 299.647L106.223 300.36L106.292 297.12L72.9203 296.407L72.8512 299.647Z" fill="#4A4A4F"/>
<path d="M76.4763 295.831C76.4763 295.831 81.6554 297.794 85.1576 297.148C88.6598 296.502 94.3062 298.829 95.1085 300.171C95.9107 301.512 95.5113 301.966 93.7879 302.207C92.0644 302.447 85.8456 304.324 82.1055 302.423C78.3654 300.521 73.2812 299.903 73.2812 299.903L76.4763 295.831Z" fill="#E49963"/>
<path d="M35.5391 244.346C35.5391 244.346 36.8063 287.629 46.3 292.547C50.9843 294.974 72.1361 301.645 78.4853 302.785C78.4853 302.785 80.1933 301.686 80.3855 296.463C80.3855 296.463 58.6519 285.618 55.9349 280.732C51.8915 273.459 61.9594 253.525 56.65 246.526C51.3407 239.528 41.5184 235.683 35.5391 244.346Z" fill="#FFB156"/>
<path d="M465.831 348.307C466.404 343.874 461.699 341.445 458.648 340.346C459.148 335.61 460.406 331.207 461.978 327.307C465.014 332.003 470.478 339.305 471.305 332.512C472.001 326.818 467.643 324.052 464.044 322.752C467.951 315.03 472.451 310.196 472.451 310.196C472.451 310.196 474.547 311.374 477.534 313.647C476.51 316.134 475.619 319.57 477.538 321.251C479.541 323.001 480.212 319.14 480.432 315.988C484.261 319.267 488.761 323.895 492.286 329.799C489.637 331.539 485.191 334.965 487.595 337.071C490.102 339.266 493.021 335.542 494.303 333.582C495.508 336.109 496.512 338.826 497.202 341.739C497.476 342.902 497.677 343.997 497.814 345.042C494.436 344.891 484.388 344.911 486.66 350.692C488.731 355.961 495.053 352.056 497.961 349.891C496.869 362.392 483.532 362.138 478.958 351.718C477.597 364.978 460.504 368.614 458.585 348.371C460.788 350.179 465.205 353.165 465.831 348.307Z" fill="url(#paint0_linear_12452_62625)"/>
<path d="M473.828 314.615C473.828 314.615 481.902 360.575 480.595 397.171" stroke="#00FFA3" stroke-miterlimit="10" stroke-linecap="round" stroke-linejoin="round"/>
<path d="M486.044 351.107C488.752 348.136 485.232 343.727 483.16 341.582C485.946 338.332 489.139 335.683 492.312 333.552C492.615 337.994 493.761 347.593 497.918 342.945C501.522 338.913 497.982 334.261 495.313 331.67C502.638 327.404 509.091 325.85 509.091 325.85C509.091 325.85 510.653 328.499 512.289 332.785C510.203 333.958 507.436 336.015 508.357 338.283C509.277 340.555 511.745 337.994 513.381 335.888C514.771 340.228 515.966 345.638 515.98 351.459C512.91 351.42 508.66 351.781 509.63 354.162C510.565 356.473 513.655 356.058 515.799 355.442C515.545 358.071 515.021 360.745 514.139 363.413C514.046 363.692 513.953 363.96 513.855 364.229C510.526 362.201 503.265 358.369 502.599 363.071C501.967 367.533 508.499 368.129 512.083 368.124C505.062 380.46 492.307 373.202 493.776 361.932C485.912 371.785 469.451 365.686 478.548 348.36C478.862 347.769 479.185 347.187 479.527 346.625C480.179 348.385 482.852 354.611 486.044 351.107Z" fill="url(#paint1_linear_12452_62625)"/>
<path d="M457.529 364.485C456.73 360.864 451.834 360.878 448.794 361.255C447.839 357.428 447.658 353.557 447.902 349.945C451.986 352.326 458.993 355.737 457.724 350.204C456.662 345.566 451.971 345.19 448.392 345.63C449.582 338.162 452.157 332.664 452.157 332.664C452.157 332.664 454.366 332.728 457.69 333.275C457.514 335.587 457.739 338.573 459.938 339.096C462.234 339.638 461.69 336.413 460.956 333.915C465.324 334.898 470.69 336.642 475.567 339.755C473.726 342.145 470.788 346.544 473.544 347.194C476.419 347.873 477.912 343.861 478.475 341.847C480.292 343.304 481.986 344.98 483.455 346.935C484.042 347.712 484.542 348.474 484.972 349.217C481.927 350.449 473.006 354.476 476.732 357.995C480.125 361.201 484.591 355.693 486.534 352.868C489.252 362.872 477.324 368.004 470.19 361.846C472.893 372.539 458.777 382.143 451.1 367.413C453.597 367.931 458.4 368.453 457.529 364.485Z" fill="url(#paint2_linear_12452_62625)"/>
<path d="M507.215 329.423C507.215 329.423 492.374 358.83 482.993 397.165" stroke="#00FFA3" stroke-miterlimit="10" stroke-linecap="round" stroke-linejoin="round"/>
<path d="M454.405 336.397C454.405 336.397 477.976 362.754 479.504 398.695" stroke="#00FFA3" stroke-miterlimit="10" stroke-linecap="round" stroke-linejoin="round"/>
<path d="M467.983 387.376H495.201C495.201 387.376 495.314 388.867 495.265 391.159H467.914C467.875 388.867 467.983 387.376 467.983 387.376Z" fill="#4991FF"/>
<path d="M488.959 413.514V413.841H474.221V413.514C468.517 409.829 468.737 401.75 468.125 394.967H495.055C494.443 401.745 494.663 409.824 488.959 413.514Z" fill="#4991FF"/>
<path d="M495.059 394.966H468.129C468.002 393.559 467.943 392.269 467.919 391.159H495.27C495.245 392.264 495.186 393.559 495.059 394.966Z" fill="#4991FF"/>
<path d="M474.227 413.841H488.965V417.648H474.227V413.841Z" fill="#4991FF"/>
<path opacity="0.05" d="M519.412 420H1.50223C1.1788 420 0.914062 419.472 0.914062 418.827V418.427C0.914062 417.783 1.1788 417.255 1.50223 417.255H519.412C519.735 417.255 520 417.783 520 418.427V418.827C520 419.472 519.735 420 519.412 420Z" fill="white"/>
<path d="M484.143 81.8452C485.197 86.8203 481.402 91.5033 476.317 91.5033H239.72C235.94 91.5033 232.677 88.8585 231.893 85.1613L215.898 9.65804C214.844 4.68292 218.638 0 223.724 0H460.321C464.1 0 467.364 2.64474 468.147 6.34196L484.143 81.8452Z" fill="#2F2F33"/>
<path d="M241.697 19.9327C241.697 17.0733 239.611 14.8973 236.919 14.8973C234.227 14.8973 232.129 17.0733 232.129 19.9327C232.129 22.7783 234.227 24.9543 236.919 24.9543C237.236 24.9543 237.54 24.9264 237.843 24.8706L240.166 27.2L241.512 25.7075L239.783 23.9918C240.958 23.0851 241.697 21.6345 241.697 19.9327ZM234.122 19.9188C234.122 18.1473 235.23 16.864 236.919 16.864C238.609 16.864 239.704 18.1473 239.704 19.9188C239.704 21.7182 238.582 22.9875 236.919 22.9875C235.257 22.9875 234.122 21.7182 234.122 19.9188Z" fill="#404043"/>
<path d="M248.449 24.7729H250.375L247.287 15.0786H244.899L241.811 24.7729H243.751L244.397 22.6946H247.802L248.449 24.7729ZM244.925 21.0068L246.1 17.2546L247.274 21.0068H244.925Z" fill="#404043"/>
<path d="M250.749 25.4704H252.465L254.972 14.8554H253.283L250.749 25.4704Z" fill="#404043"/>
<path d="M265.19 19.9327C265.19 17.0733 263.105 14.8973 260.413 14.8973C257.721 14.8973 255.623 17.0733 255.623 19.9327C255.623 22.7783 257.721 24.9543 260.413 24.9543C260.73 24.9543 261.033 24.9264 261.337 24.8706L263.66 27.2L265.006 25.7075L263.277 23.9918C264.451 23.0851 265.19 21.6345 265.19 19.9327ZM257.615 19.9188C257.615 18.1473 258.724 16.864 260.413 16.864C262.102 16.864 263.198 18.1473 263.198 19.9188C263.198 21.7182 262.076 22.9875 260.413 22.9875C258.75 22.9875 257.615 21.7182 257.615 19.9188Z" fill="#404043"/>
<path d="M270.799 24.9543C273.148 24.9543 274.613 23.4757 275.114 21.7879L273.227 20.9789C272.91 22.2064 272.119 22.9875 270.772 22.9875C269.189 22.9875 268.08 21.76 268.08 19.9327C268.08 18.0915 269.189 16.864 270.759 16.864C272.105 16.864 272.91 17.6591 273.227 18.8726L275.114 18.0636C274.626 16.4316 273.174 14.8973 270.812 14.8973C268.12 14.8973 266.088 17.0035 266.088 19.9327C266.088 22.848 268.12 24.9543 270.799 24.9543Z" fill="#404043"/>
<path d="M285.121 15.0786H277.744V16.9198H280.45V24.7729H282.416V16.9198H285.121V15.0786Z" fill="#404043"/>
<path d="M286.221 21.7321H291.434C291.461 21.5508 291.474 21.2718 291.474 20.951C291.474 19.1098 290.141 17.2546 287.897 17.2546C285.905 17.2546 284.308 18.9703 284.308 21.1044C284.308 23.2944 285.773 24.9543 288.029 24.9543C289.732 24.9543 290.629 24.215 291.17 23.3781L289.679 22.3319C289.376 22.9178 288.94 23.2386 288.082 23.2386C287.158 23.2386 286.446 22.6946 286.221 21.7321ZM286.195 20.3791C286.393 19.3748 287.053 18.8169 287.95 18.8169C288.848 18.8169 289.455 19.4166 289.639 20.3791H286.195Z" fill="#404043"/>
<path d="M295.009 24.9543C296.79 24.9543 297.938 24.0476 297.938 22.569C297.938 19.863 294.217 20.5744 294.217 19.3887C294.217 19.0121 294.507 18.789 295.035 18.789C295.55 18.789 295.919 19.04 296.091 19.5422L297.74 18.8726C297.45 17.8544 296.447 17.2546 295.062 17.2546C293.372 17.2546 292.29 18.1055 292.29 19.5003C292.29 22.025 295.999 21.4113 295.999 22.6946C295.999 23.113 295.655 23.3641 295.075 23.3641C294.296 23.3641 293.795 22.9875 293.61 22.3459L291.96 23.0154C292.356 24.2847 293.465 24.9543 295.009 24.9543Z" fill="#404043"/>
<path d="M302.087 24.7729H303.235V22.9736H302.496C301.81 22.9736 301.427 22.5551 301.427 21.774V19.1795H303.182V17.422H301.493V15.4831H299.593V16.6269C299.593 17.157 299.355 17.422 298.88 17.422H298.286V19.1795H299.474V22.025C299.474 23.6849 300.358 24.7729 302.087 24.7729Z" fill="#404043"/>
<path d="M305.153 16.3479C305.865 16.3479 306.42 15.8039 306.42 15.0368C306.42 14.2835 305.865 13.7256 305.153 13.7256C304.44 13.7256 303.873 14.2835 303.873 15.0368C303.873 15.8039 304.44 16.3479 305.153 16.3479ZM304.163 24.7729H306.116V17.422H304.163V24.7729Z" fill="#404043"/>
<path d="M311.46 17.2407C310.562 17.2407 309.836 17.5894 309.361 18.1055V17.422H307.514V24.7729H309.467V20.4209C309.48 19.6677 310.087 19.0819 310.866 19.0819C311.657 19.0819 312.238 19.6119 312.238 20.5465V24.7729H314.178V20.142C314.178 18.4263 313.122 17.2407 311.46 17.2407Z" fill="#404043"/>
<path d="M320.795 17.422V18.231C320.294 17.6173 319.568 17.2546 318.644 17.2546C316.652 17.2546 315.2 18.9005 315.2 20.9091C315.2 22.9178 316.639 24.5219 318.644 24.5219C319.568 24.5219 320.294 24.1592 320.795 23.5454V23.8523C320.795 24.9822 320.056 25.7214 318.803 25.7214C317.932 25.7214 317.246 25.3727 316.955 24.6055L315.292 25.289C315.754 26.5723 316.85 27.4511 318.79 27.4511C321.205 27.4511 322.603 25.9028 322.603 23.657V17.422H320.795ZM318.895 22.9457C317.892 22.9457 317.14 22.0948 317.14 21.0068C317.14 19.9188 317.892 19.0679 318.908 19.0679C319.951 19.0679 320.677 19.8909 320.677 21.0068C320.677 22.1087 319.951 22.9457 318.895 22.9457Z" fill="#404043"/>
<path opacity="0.2" d="M457.608 42.9958L459.927 50.5978C460.947 53.9428 459.048 56.6798 455.707 56.6798H246.152C242.811 56.6798 239.243 53.9428 238.223 50.5978L235.905 42.9958C234.885 39.651 236.783 36.9141 240.124 36.9141H449.679C453.02 36.9141 456.588 39.651 457.608 42.9958Z" fill="#4991FF"/>
<path d="M413.859 43.9865H409.777L409.395 42.7324H415.1L415.43 43.8127L413.915 50.86H412.315L413.859 43.9865Z" fill="#4991FF"/>
<path d="M417.34 46.7965C416.632 44.4745 417.472 42.5938 419.606 42.5938C421.728 42.5938 423.698 44.4513 424.413 46.7965C425.122 49.1188 424.28 50.9996 422.147 50.9996C420.013 50.9996 418.055 49.142 417.34 46.7965ZM422.94 46.7965C422.452 45.1945 421.229 43.8823 419.976 43.8823C418.724 43.8823 418.313 45.1595 418.813 46.7965C419.301 48.3988 420.512 49.7106 421.777 49.7106C423.041 49.7106 423.436 48.4221 422.94 46.7965Z" fill="#4991FF"/>
<path d="M424.999 44.7174C424.655 43.5915 425.141 42.6396 426.289 42.6396C427.426 42.6396 428.478 43.5798 428.825 44.7174C429.168 45.8439 428.682 46.796 427.534 46.796C426.398 46.796 425.346 45.8558 424.999 44.7174ZM431.153 42.7321H432.301L428.843 50.8597H427.694L431.153 42.7321ZM427.793 44.7174C427.594 44.0675 427.06 43.5334 426.539 43.5334C425.993 43.5334 425.832 44.0675 426.031 44.7174C426.233 45.3793 426.763 45.9022 427.285 45.9022C427.829 45.9022 427.991 45.368 427.793 44.7174ZM431.171 48.8744C430.827 47.7481 431.314 46.796 432.462 46.796C433.599 46.796 434.65 47.7366 434.998 48.8744C435.341 50.0003 434.854 50.9523 433.707 50.9523C432.57 50.9523 431.518 50.0121 431.171 48.8744ZM433.965 48.8744C433.767 48.2238 433.233 47.69 432.712 47.69C432.166 47.69 432.005 48.2238 432.203 48.8744C432.405 49.536 432.935 50.0585 433.457 50.0585C434.002 50.0585 434.164 49.5243 433.965 48.8744Z" fill="#4991FF"/>
<path d="M381.822 36.9141L387.85 56.6798H246.152C243.368 56.6798 240.43 54.7792 238.939 52.2148C238.635 51.6977 238.393 51.1555 238.223 50.5978L235.905 42.9958C234.885 39.651 236.783 36.9141 240.124 36.9141H381.822Z" fill="#4991FF"/>
<path d="M265.203 36.9141L259.23 56.6798H246.151C243.367 56.6798 240.428 54.7792 238.938 52.2148L243.559 36.9141H265.203Z" fill="#4991FF"/>
<path d="M302.288 36.9141L296.315 56.6798H274.676L280.649 36.9141H302.288Z" fill="#4991FF"/>
<path d="M339.375 36.9141L333.402 56.6798H311.758L317.731 36.9141H339.375Z" fill="#4991FF"/>
<path d="M376.461 36.9141L370.488 56.6798H348.844L354.817 36.9141H376.461Z" fill="#4991FF"/>
<path d="M284.584 69.3879H246.738L245.941 66.7744H283.787L284.584 69.3879Z" fill="#3C3C3F"/>
<path d="M276.468 76.6974H248.969L248.172 74.084H275.671L276.468 76.6974Z" fill="#3C3C3F"/>
<path d="M294.598 76.6974H278.16L277.363 74.084H293.8L294.598 76.6974Z" fill="#3C3C3F"/>
<path d="M322.551 76.6974H297.442L296.645 74.084H321.754L322.551 76.6974Z" fill="#3C3C3F"/>
<path d="M298.889 69.3879H287.43L286.633 66.7744H298.092L298.889 69.3879Z" fill="#3C3C3F"/>
<path d="M344.477 69.3879H302.809L302.012 66.7744H343.681L344.477 69.3879Z" fill="#3C3C3F"/>
<path d="M202.367 181.006C203.934 186.146 200.089 191.339 194.714 191.339H33.5038C29.9845 191.339 26.8785 189.039 25.8518 185.673L3.07354 110.987C1.50578 105.847 5.3514 100.653 10.7256 100.653H171.936C175.456 100.653 178.562 102.953 179.588 106.32L202.367 181.006Z" fill="#333338"/>
<path d="M180.403 145.997H25.0357L13.2812 107.455H168.649L180.403 145.997Z" fill="#36363A"/>
<path d="M50.5818 115.288H24.2638L23.6367 113.232H49.9549L50.5818 115.288Z" fill="#3D3D42"/>
<path d="M78.7342 115.288H56.8458L56.2188 113.232H78.1071L78.7342 115.288Z" fill="#3D3D42"/>
<path d="M129.676 115.288H84.4357L83.8086 113.232H129.049L129.676 115.288Z" fill="#3D3D42"/>
<path d="M52.8279 122.656H26.5097L25.8828 120.6H52.201L52.8279 122.656Z" fill="#3D3D42"/>
<path d="M80.9803 122.656H59.0919L58.4648 120.6H80.3532L80.9803 122.656Z" fill="#3D3D42"/>
<path d="M106.828 122.656H84.9394L84.3125 120.6H106.201L106.828 122.656Z" fill="#3D3D42"/>
<path d="M158.7 123.512H113.459L112.832 121.456H158.073L158.7 123.512Z" fill="#3D3D42"/>
<path d="M55.6794 131.995H29.3615L28.7344 129.939H55.0526L55.6794 131.995Z" fill="#3D3D42"/>
<path d="M83.8319 131.995H61.9435L61.3164 129.939H83.205L83.8319 131.995Z" fill="#3D3D42"/>
<path d="M134.774 131.995H89.5334L88.9062 129.939H134.147L134.774 131.995Z" fill="#3D3D42"/>
<path d="M57.9257 139.363H31.6076L30.9805 137.307H57.2986L57.9257 139.363Z" fill="#3D3D42"/>
<path d="M86.0778 139.363H64.1894L63.5625 137.307H85.4509L86.0778 139.363Z" fill="#3D3D42"/>
<path d="M111.926 139.363H90.0372L89.4102 137.307H111.299L111.926 139.363Z" fill="#3D3D42"/>
<path d="M163.797 140.219H118.557L117.93 138.163H163.17L163.797 140.219Z" fill="#3D3D42"/>
<path d="M129.214 177.925C123.184 177.925 116.779 173.013 114.937 166.974C113.096 160.936 116.504 156.023 122.534 156.023C128.565 156.023 134.97 160.936 136.811 166.974C138.653 173.013 135.244 177.925 129.214 177.925ZM123.144 158.023C118.215 158.023 115.429 162.039 116.934 166.974C118.44 171.91 123.675 175.925 128.604 175.925C133.534 175.925 136.319 171.91 134.814 166.974C133.309 162.039 128.074 158.023 123.144 158.023Z" fill="#37373D"/>
<path d="M127.353 172.544C126.936 172.513 126.497 172.334 126.119 172.034L119.916 167.113C119.078 166.448 118.78 165.394 119.25 164.757C119.72 164.121 120.78 164.144 121.619 164.809L126.002 168.286L128.156 163.141C128.468 162.396 129.458 162.231 130.367 162.769C131.276 163.309 131.76 164.351 131.448 165.097L128.616 171.86C128.448 172.26 128.073 172.511 127.59 172.545C127.513 172.55 127.433 172.55 127.353 172.544Z" fill="#37373D"/>
<path d="M97.921 177.925C91.8906 177.925 85.4859 173.013 83.6442 166.974C81.8027 160.936 85.2109 156.023 91.2414 156.023C97.272 156.023 103.676 160.936 105.518 166.974C107.36 173.013 103.951 177.925 97.921 177.925ZM91.8513 158.023C86.9218 158.023 84.1363 162.039 85.6415 166.974C87.1469 171.91 92.3817 175.925 97.311 175.925C102.241 175.925 105.026 171.91 103.521 166.974C102.016 162.039 96.7809 158.023 91.8513 158.023Z" fill="#37373D"/>
<path d="M96.0597 172.544C95.6432 172.513 95.2035 172.334 94.8259 172.034L88.6235 167.113C87.7852 166.448 87.4871 165.394 87.9571 164.757C88.4268 164.121 89.4872 164.144 90.3264 164.809L94.7087 168.286L96.8628 163.141C97.1749 162.396 98.1648 162.231 99.0738 162.769C99.9829 163.309 100.467 164.351 100.155 165.097L97.3233 171.86C97.1556 172.26 96.7802 172.511 96.2975 172.545C96.2195 172.55 96.14 172.55 96.0597 172.544Z" fill="#37373D"/>
<path d="M65.5069 177.925C59.4764 177.925 53.0718 173.013 51.2302 166.974C49.3885 160.936 52.7969 156.023 58.8274 156.023C64.8579 156.023 71.2625 160.936 73.104 166.974C74.9457 173.013 71.5375 177.925 65.5069 177.925ZM59.4372 158.023C54.5078 158.023 51.7221 162.039 53.2275 166.974C54.7327 171.91 59.9675 175.925 64.897 175.925C69.8266 175.925 72.6121 171.91 71.1069 166.974C69.6015 162.039 64.3668 158.023 59.4372 158.023Z" fill="#37373D"/>
<path d="M63.6456 172.544C63.2292 172.513 62.7894 172.334 62.4118 172.034L56.2094 167.113C55.3711 166.448 55.073 165.394 55.5432 164.757C56.0128 164.121 57.0733 164.144 57.9123 164.809L62.2946 168.286L64.4489 163.141C64.7607 162.396 65.7507 162.231 66.6597 162.769C67.5688 163.309 68.0528 164.351 67.7408 165.097L64.9092 171.86C64.7415 172.26 64.3661 172.511 63.8836 172.545C63.8054 172.55 63.7259 172.55 63.6456 172.544Z" fill="#37373D"/>
<path d="M159.409 177.925C153.379 177.925 146.974 173.013 145.133 166.974C143.291 160.936 146.699 156.023 152.73 156.023C158.76 156.023 165.165 160.936 167.006 166.974C168.848 173.013 165.44 177.925 159.409 177.925ZM153.34 158.023C148.41 158.023 145.624 162.039 147.13 166.974C148.635 171.91 153.87 175.925 158.799 175.925C163.729 175.925 166.514 171.91 165.009 166.974C163.504 162.039 158.269 158.023 153.34 158.023Z" fill="#37373D"/>
<path d="M156.617 168.766C155.767 168.766 154.858 168.069 154.598 167.217L153.18 162.565C152.92 161.714 153.403 161.017 154.254 161.017C155.105 161.017 156.013 161.714 156.273 162.565L157.692 167.217C157.952 168.069 157.468 168.766 156.617 168.766Z" fill="#37373D"/>
<path d="M157.897 172.417H157.563C156.804 172.417 155.994 171.795 155.762 171.036C155.53 170.276 155.961 169.654 156.72 169.654H157.054C157.813 169.654 158.624 170.276 158.855 171.036C159.087 171.795 158.656 172.417 157.897 172.417Z" fill="#37373D"/>
</g>
<defs>
<linearGradient id="paint0_linear_12452_62625" x1="478.273" y1="310.196" x2="478.273" y2="362.608" gradientUnits="userSpaceOnUse">
<stop stop-color="#00FFA3"/>
<stop offset="1" stop-color="#00FFA3" stop-opacity="0"/>
</linearGradient>
<linearGradient id="paint1_linear_12452_62625" x1="495.931" y1="325.85" x2="495.931" y2="374.559" gradientUnits="userSpaceOnUse">
<stop stop-color="#00FFA3"/>
<stop offset="1" stop-color="#00FFA3" stop-opacity="0"/>
</linearGradient>
<linearGradient id="paint2_linear_12452_62625" x1="467.367" y1="332.664" x2="467.367" y2="374.947" gradientUnits="userSpaceOnUse">
<stop stop-color="#00FFA3"/>
<stop offset="1" stop-color="#00FFA3" stop-opacity="0"/>
</linearGradient>
<clipPath id="clip0_12452_62625">
<rect width="520" height="420" fill="white"/>
</clipPath>
</defs>
</svg>
