<svg width="290" height="290" viewBox="0 0 290 290" fill="none" xmlns="http://www.w3.org/2000/svg">
<g clip-path="url(#clip0_12809_61238)">
<g opacity="0.5">
<path opacity="0.03" d="M70.4996 20.0738C98.5788 11.927 131.794 7.33837 167.247 7.62818C171.932 7.66038 176.553 7.78918 181.142 7.99849C212.28 10.8483 223.341 43.7253 204.584 58.103C195.97 64.7042 185.585 64.6398 181.142 64.6076C176.553 64.3983 171.932 64.2856 167.247 64.2373C131.794 63.9475 98.5788 68.5361 70.4996 76.6829C42.1468 83.59 40.4724 54.7702 50.3741 37.1564C53.723 31.2153 59.9056 23.4549 70.4996 20.0738Z" fill="#FFB156"/>
<path opacity="0.2" d="M62.5306 78.3255C55.0278 78.3255 50.7773 75.1215 48.3944 71.9819C41.5678 62.9818 44.0473 47.155 49.8434 36.8347C53.2245 30.8131 59.5359 22.9078 70.3071 19.4784H70.3232C99.4005 11.0418 132.922 6.69467 167.248 7.01668C171.885 7.04888 176.57 7.17768 181.159 7.38699C196.808 8.81993 209.383 18.3514 213.247 31.6664C216.241 42.0351 213.053 52.3555 204.939 58.5702C196.164 65.3002 185.634 65.2519 181.126 65.2036C176.522 64.9943 171.852 64.8816 167.232 64.8333C133.018 64.5757 99.6259 68.8423 70.6613 77.2467C67.6022 78.0035 64.8973 78.3255 62.5306 78.3255ZM70.6774 20.6537C60.2926 23.9704 54.1905 31.6181 50.9222 37.4465C45.3031 47.4287 42.8558 62.6597 49.3765 71.2574C53.5465 76.7476 60.7917 78.4221 70.3715 76.0875C99.4327 67.6509 132.954 63.3199 167.264 63.6258C171.901 63.658 176.586 63.7868 181.175 63.9961C185.522 64.0122 195.762 64.0927 204.214 57.6203C211.926 51.7115 214.953 41.8902 212.087 32.0045C208.368 19.1564 196.212 9.97916 181.094 8.59452C176.538 8.38521 171.869 8.27251 167.248 8.22421C133.018 7.9827 99.6259 12.2493 70.6774 20.6537Z" fill="#FFB156"/>
<g opacity="0.3">
<path opacity="0.5" d="M289.457 151.724L289.252 151.325C289.066 150.959 288.847 150.435 288.582 149.728C286.11 142.601 278.893 136.141 267.7 131.036C259.919 126.67 258.037 120.368 257.587 117.854C257.056 114.889 257.66 110.694 260.231 108.482C262.12 106.859 264.691 106.551 267.879 107.566C279.225 112.736 286.535 119.301 289.053 126.552C289.583 128.601 289.994 130.198 290.001 137.437V149.708C290.001 150.782 290.001 150.847 289.689 151.351L289.457 151.724ZM258.084 117.769C258.521 120.21 260.357 126.343 267.932 130.597C279.231 135.748 286.541 142.313 289.06 149.564C289.212 149.977 289.351 150.33 289.477 150.618C289.504 150.448 289.504 150.193 289.504 149.702V137.43C289.497 130.257 289.093 128.686 288.582 126.69C286.117 119.589 278.9 113.122 267.707 108.024C264.724 107.075 262.312 107.35 260.569 108.855C258.137 110.936 257.573 114.935 258.084 117.769Z" fill="#00FFA3"/>
<path opacity="0.5" d="M0.981777 166.75L0 166.71V120.685C0 120.279 0.0130904 119.86 0.0261807 119.454C0.314169 111.822 3.20714 104.361 8.65272 97.2659L8.86217 97.0565C9.9094 96.0224 11.3362 94.5955 12.8155 94.3861C14.7921 94.0981 16.5593 95.106 17.9207 97.279C22.45 104.531 22.0442 125.292 9.45124 143.868C2.09446 153.829 1.61011 159.537 0.981777 166.75ZM13.4569 95.3286C13.2998 95.3286 13.1296 95.3417 12.9594 95.3678C11.8075 95.538 10.4985 96.8209 9.55596 97.7634L9.38578 97.9205C4.11037 104.793 1.28285 112.071 1.00796 119.493C0.994867 119.899 0.981777 120.292 0.981777 120.685V158.961C1.92428 154.484 3.86165 149.771 8.63963 143.305C20.9838 125.083 21.4682 104.832 17.0829 97.8027C16.3629 96.6376 15.1586 95.3286 13.4569 95.3286Z" fill="#FF317B"/>
</g>
<path opacity="0.5" d="M11.4672 190.693C10.2497 190.693 8.66582 190.051 6.91171 187.669C0.929415 179.487 0.35344 171.515 0 166.751V120.686H0.981777C0.981777 127.637 3.24641 134.496 7.72331 141.08C17.5411 157.325 18.7061 173.348 17.8422 180.26C17.1353 185.928 15.0277 189.894 12.3311 190.588C12.0693 190.653 11.7813 190.693 11.4672 190.693ZM0.981777 128.71V166.711C1.32213 171.332 1.88501 179.134 7.71022 187.093C8.74436 188.507 10.3414 190.091 12.0824 189.632C14.347 189.043 16.219 185.313 16.8604 180.142C17.6982 173.361 16.5593 157.6 6.88553 141.617C4.04492 137.415 2.06828 133.095 0.981777 128.71Z" fill="#FF317B"/>
<path opacity="0.5" d="M262.621 181C260.353 181 258.47 180.18 257.15 178.585C254.604 175.507 254.544 169.921 257.004 165.301C259.783 160.096 264.093 157.825 265.717 156.965C277.334 152.03 285.073 145.677 288.116 138.582C288.448 137.873 288.746 137.335 288.998 136.974L289.058 136.882L289.621 136.81L289.688 137C289.886 137.564 289.973 137.794 289.999 140.557V147.659C289.933 157.674 289.336 159.505 288.58 161.829C285.484 169.068 277.653 175.513 265.929 180.488C264.762 180.829 263.655 181 262.621 181ZM289.303 137.407C289.091 137.742 288.845 138.201 288.574 138.779C285.484 145.985 277.659 152.43 265.936 157.405C264.365 158.232 260.154 160.45 257.449 165.524C255.075 169.974 255.115 175.336 257.535 178.263C258.801 179.792 261.255 181.335 265.764 180.016C277.334 175.1 285.073 168.746 288.116 161.652C288.852 159.394 289.436 157.595 289.502 147.652V140.557C289.482 138.332 289.429 137.814 289.303 137.407Z" fill="#00FFA3"/>
</g>
<g opacity="0.7">
<path d="M151.483 281.033L38.6943 214.905C32.7168 211.4 32.7754 202.745 38.7997 199.323L109.782 159.684C114.406 157.057 120.081 157.095 124.668 159.784L243.488 229.448C247.872 232.018 247.829 238.365 243.411 240.876L171.281 281.168C165.131 284.661 157.583 284.611 151.483 281.033Z" fill="#252529"/>
<path d="M134.726 209.572L161.282 262.918V267.566C157.877 267.516 154.496 266.611 151.484 264.85L38.6828 198.715C35.8662 197.075 34.4456 194.285 34.298 191.422H34.2734V188.331L134.726 209.572Z" fill="#29292D"/>
<path d="M246.743 214.395V218.194H246.646C246.94 220.69 245.887 223.286 243.413 224.705L171.277 264.996C168.166 266.758 164.712 267.615 161.282 267.566V262.187L134.727 209.572L246.743 214.395Z" fill="#29292D"/>
<path d="M151.483 260.198L38.6943 194.071C32.7168 190.566 32.7754 181.911 38.7997 178.489L109.782 138.85C114.406 136.223 120.081 136.261 124.668 138.95L243.488 208.614C247.872 211.184 247.829 217.531 243.411 220.042L171.281 260.334C165.131 263.827 157.583 263.775 151.483 260.198Z" fill="#2F2F33"/>
<path d="M246.581 212.814C247.041 215.408 245.959 218.237 243.345 219.723L171.215 260.015C165.066 263.509 157.518 263.457 151.418 259.88L38.6282 193.752C36.3281 192.404 34.9227 190.293 34.4062 188.011C34.8607 190.413 36.2883 192.66 38.6938 194.07L151.482 260.198C157.583 263.776 165.131 263.826 171.279 260.333L243.409 220.041C246.132 218.494 247.191 215.493 246.581 212.814Z" fill="#37373A"/>
</g>
<path d="M83.7774 53.6478L44.439 75.6508C43.6883 76.0709 43.173 76.8198 43.0547 77.66V134.086C43.0547 135.422 44.4682 136.22 45.6581 135.555L83.3066 114.496C84.5175 113.819 85.2788 112.536 85.2764 111.176L85.2027 54.5956C85.3139 53.7999 84.4871 53.2511 83.7774 53.6478Z" fill="#2F2F33"/>
<g opacity="0.1">
<path d="M66.1429 74.5467L78.0744 68.0077C78.1458 67.9679 78.2056 67.8778 78.2056 67.8052V66.9885C78.2056 66.9171 78.147 66.8902 78.0744 66.9288L66.1429 73.4678C66.0714 73.5076 66.0117 73.5977 66.0117 73.6702V74.487C66.0129 74.5596 66.0714 74.5865 66.1429 74.5467Z" fill="white"/>
<path d="M47.8851 102.019L58.7403 96.0257C58.8118 95.9859 58.8715 95.8958 58.8715 95.8233V80.2785C58.8715 80.2071 58.8129 80.1802 58.7403 80.2188L47.8851 86.2125C47.8136 86.2523 47.7539 86.3424 47.7539 86.415V101.96C47.7539 102.032 47.8125 102.058 47.8851 102.019Z" fill="white"/>
<path d="M61.5882 80.5435L78.0731 71.622C78.1445 71.5822 78.2043 71.4921 78.2043 71.4195V70.6027C78.2043 70.5313 78.1457 70.5044 78.0731 70.543L61.5882 79.4645C61.5168 79.5043 61.457 79.5944 61.457 79.667V80.4838C61.457 80.5563 61.5168 80.5821 61.5882 80.5435Z" fill="white"/>
<path d="M61.5882 84.1587L78.0731 75.2372C78.1445 75.1974 78.2043 75.1073 78.2043 75.0347V74.218C78.2043 74.1466 78.1457 74.1197 78.0731 74.1583L61.5882 83.0809C61.5168 83.1207 61.457 83.2108 61.457 83.2834V84.1002C61.457 84.1716 61.5168 84.1973 61.5882 84.1587Z" fill="white"/>
<path d="M61.5882 87.7739L78.0731 78.8524C78.1445 78.8126 78.2043 78.7225 78.2043 78.65V77.8332C78.2043 77.7618 78.1457 77.7349 78.0731 77.7735L61.5882 86.695C61.5168 86.7348 61.457 86.8249 61.457 86.8974V87.7142C61.457 87.7856 61.5168 87.8125 61.5882 87.7739Z" fill="white"/>
<path d="M61.5882 91.3872L78.0731 82.4657C78.1445 82.4259 78.2043 82.3358 78.2043 82.2633V81.4465C78.2043 81.3751 78.1457 81.3482 78.0731 81.3868L61.5882 90.3083C61.5168 90.3481 61.457 90.4382 61.457 90.5107V91.3275C61.457 91.4001 61.5168 91.427 61.5882 91.3872Z" fill="white"/>
<path d="M61.5882 95.0015L78.0731 86.08C78.1445 86.0402 78.2043 85.9501 78.2043 85.8775V85.0607C78.2043 84.9893 78.1457 84.9624 78.0731 85.001L61.5882 93.9225C61.5168 93.9623 61.457 94.0524 61.457 94.125V94.9418C61.457 95.0143 61.5168 95.0412 61.5882 95.0015Z" fill="white"/>
<path d="M66.1429 102.314L78.0744 95.7753C78.1458 95.7355 78.2056 95.6454 78.2056 95.5728V94.756C78.2056 94.6847 78.147 94.6577 78.0744 94.6964L66.1429 101.235C66.0714 101.275 66.0117 101.365 66.0117 101.438V102.255C66.0129 102.327 66.0714 102.354 66.1429 102.314Z" fill="white"/>
<path d="M61.5882 108.311L78.0731 99.3895C78.1445 99.3497 78.2043 99.2596 78.2043 99.1871V98.3703C78.2043 98.2989 78.1457 98.272 78.0731 98.3106L61.5882 107.233C61.5168 107.273 61.457 107.363 61.457 107.436V108.253C61.457 108.324 61.5168 108.351 61.5882 108.311Z" fill="white"/>
<path d="M61.5882 111.925L78.0731 103.004C78.1445 102.964 78.2043 102.874 78.2043 102.801V101.985C78.2043 101.913 78.1457 101.886 78.0731 101.925L61.5882 110.846C61.5168 110.886 61.457 110.976 61.457 111.049V111.866C61.457 111.938 61.5168 111.964 61.5882 111.925Z" fill="white"/>
<path d="M61.5882 115.541L78.0731 106.619C78.1445 106.579 78.2043 106.489 78.2043 106.417V105.6C78.2043 105.528 78.1457 105.501 78.0731 105.54L61.5882 114.462C61.5168 114.501 61.457 114.592 61.457 114.664V115.481C61.457 115.553 61.5168 115.579 61.5882 115.541Z" fill="white"/>
</g>
<path d="M118.589 122.885L239.506 193.891L240.947 193.205V97.7604L118.589 27.4404L117.148 28.1262L118.589 122.885Z" fill="#252529"/>
<path d="M117.148 123.571L239.506 193.891V98.446L117.148 28.126V123.571Z" fill="#29292D"/>
<path d="M120.516 121.507V34.0605L236.139 100.51V187.958L120.516 121.507Z" fill="#2F2F33"/>
<path d="M120.516 34.0605L121.857 34.8317V121.296L120.516 121.507V34.0605Z" fill="#434347"/>
<path d="M121.857 121.295L236.139 187.004V187.957L120.516 121.507L121.857 121.295Z" fill="#434347"/>
<path fill-rule="evenodd" clip-rule="evenodd" d="M235.857 131.222L121.574 65.5445L122.137 64.5645L236.42 130.242L235.857 131.222Z" fill="#434347"/>
<path fill-rule="evenodd" clip-rule="evenodd" d="M235.857 160.643L121.574 94.9644L122.137 93.9844L236.42 159.663L235.857 160.643Z" fill="#434347"/>
<path fill-rule="evenodd" clip-rule="evenodd" d="M168.816 148.621V62.1445H169.947V148.621H168.816Z" fill="#434347"/>
<path d="M126.512 63.357L128.256 51.5557L142.826 60.0653L141.082 71.8666L126.512 63.357Z" fill="#FF317B"/>
<g opacity="0.32">
<path d="M129.926 55.8633L130.041 55.084L140.368 61.1151L140.253 61.8956L129.926 55.8633Z" fill="#FFFEFF"/>
<path d="M129.609 57.9963L129.724 57.2158L140.051 63.2481L139.936 64.0286L129.609 57.9963Z" fill="#FFFEFF"/>
<path d="M129.297 60.1301L129.412 59.3496L139.739 65.3819L139.624 66.1613L129.297 60.1301Z" fill="#FFFEFF"/>
<path d="M128.98 62.2629L129.095 61.4824L135.049 64.9602L134.933 65.7396L128.98 62.2629Z" fill="#FFFEFF"/>
</g>
<path d="M145.078 74.3255V61.7109L160.906 70.808V83.4214L145.078 74.3255Z" fill="#4991FF"/>
<g opacity="0.2">
<path d="M147.383 66.3187V65.4844L158.601 71.9321V72.7653L147.383 66.3187Z" fill="#FFFEFF"/>
<path d="M147.383 68.599V67.7646L158.601 74.2124V75.0467L147.383 68.599Z" fill="#FFFEFF"/>
<path d="M147.383 70.8781V70.0449L158.601 76.4915V77.3258L147.383 70.8781Z" fill="#FFFEFF"/>
<path d="M147.383 73.1586V72.3242L153.851 76.0419V76.8751L147.383 73.1586Z" fill="#FFFEFF"/>
</g>
<path d="M125.801 90.5248V77.9102L141.629 87.0072V99.6206L125.801 90.5248Z" fill="url(#paint0_linear_12809_61238)"/>
<g opacity="0.2">
<path d="M128.105 82.5168V81.6836L139.324 88.1313V88.9645L128.105 82.5168Z" fill="#FFFEFF"/>
<path d="M128.105 84.7982V83.9639L139.324 90.4116V91.2448L128.105 84.7982Z" fill="#FFFEFF"/>
<path d="M128.105 87.0773V86.2441L139.324 92.6907V93.525L128.105 87.0773Z" fill="#FFFEFF"/>
<path d="M128.105 89.3566V88.5234L134.572 92.2411V93.0743L128.105 89.3566Z" fill="#FFFEFF"/>
</g>
<path opacity="0.1" d="M145.078 101.379V88.7656L160.906 97.8615V110.476L145.078 101.379Z" fill="white"/>
<g opacity="0.1">
<path d="M147.383 93.3724V92.5381L158.601 98.9858V99.8202L147.383 93.3724Z" fill="#FFFEFF"/>
<path d="M147.383 95.6525V94.8193L158.601 101.266V102.1L147.383 95.6525Z" fill="#FFFEFF"/>
<path d="M147.383 97.933V97.0986L158.601 103.546V104.38L147.383 97.933Z" fill="#FFFEFF"/>
<path d="M147.383 100.212V99.3789L153.851 103.095V103.929L147.383 100.212Z" fill="#FFFEFF"/>
</g>
<path d="M179.734 117.026L181.479 105.225L196.049 113.734L194.304 125.536L179.734 117.026Z" fill="#FFB156"/>
<g opacity="0.2">
<path d="M183.148 109.533L183.263 108.754L193.59 114.785L193.476 115.566L183.148 109.533Z" fill="#FFFEFF"/>
<path d="M182.832 111.666L182.947 110.886L193.274 116.918L193.158 117.699L182.832 111.666Z" fill="#FFFEFF"/>
<path d="M182.52 113.8L182.635 113.02L192.963 119.052L192.847 119.831L182.52 113.8Z" fill="#FFFEFF"/>
<path d="M182.203 115.933L182.319 115.152L188.273 118.63L188.157 119.409L182.203 115.933Z" fill="#FFFEFF"/>
</g>
<path d="M179.738 147.258L181.483 135.457L196.053 143.968L194.308 155.769L179.738 147.258Z" fill="#434347"/>
<g opacity="0.1">
<path d="M183.148 139.766L183.263 138.985L193.59 145.018L193.476 145.797L183.148 139.766Z" fill="white"/>
<path d="M182.832 141.898L182.947 141.118L193.274 147.149L193.158 147.93L182.832 141.898Z" fill="white"/>
<path d="M182.516 144.031L182.632 143.252L192.959 149.283L192.843 150.064L182.516 144.031Z" fill="white"/>
<path d="M182.203 146.164L182.319 145.384L188.273 148.862L188.157 149.642L182.203 146.164Z" fill="white"/>
</g>
<path d="M203.895 161.445L205.638 149.644L220.208 158.153L218.465 169.956L203.895 161.445Z" fill="#434347"/>
<g opacity="0.1">
<path d="M207.309 153.952L207.425 153.173L217.752 159.204L217.636 159.985L207.309 153.952Z" fill="white"/>
<path d="M206.992 156.086L207.108 155.307L217.434 161.338L217.319 162.118L206.992 156.086Z" fill="white"/>
<path d="M206.676 158.219L206.791 157.438L217.118 163.471L217.003 164.251L206.676 158.219Z" fill="white"/>
<path d="M206.363 160.352L206.478 159.571L212.432 163.049L212.317 163.83L206.363 160.352Z" fill="white"/>
</g>
<path d="M200.758 128.694V116.079L216.586 125.176V137.79L200.758 128.694Z" fill="#434347"/>
<g opacity="0.1">
<path d="M203.062 120.685V119.852L214.281 126.298V127.132L203.062 120.685Z" fill="#FFFEFF"/>
<path d="M203.062 122.966V122.132L214.281 128.58V129.413L203.062 122.966Z" fill="#FFFEFF"/>
<path d="M203.062 125.245V124.412L214.281 130.859V131.693L203.062 125.245Z" fill="#FFFEFF"/>
<path d="M203.062 127.525V126.691L209.531 130.408V131.242L203.062 127.525Z" fill="#FFFEFF"/>
</g>
<g opacity="0.05">
<path d="M176.59 81.9299V81.0967L187.808 87.5432V88.3776L176.59 81.9299Z" fill="white"/>
<path d="M176.59 90.2531V89.4199L199.825 102.785V103.618L176.59 90.2531Z" fill="white"/>
<path d="M176.59 84.7375V83.9043L219.137 108.3V109.135L176.59 84.7375Z" fill="white"/>
<path d="M176.59 87.5443V86.71L219.137 111.107V111.942L176.59 87.5443Z" fill="white"/>
</g>
<g opacity="0.05">
<path d="M125.801 107.543V106.71L137.019 113.157V113.991L125.801 107.543Z" fill="white"/>
<path d="M125.801 115.866V115.033L149.036 128.398V129.231L125.801 115.866Z" fill="white"/>
<path d="M125.801 110.351V109.518L168.348 133.914V134.748L125.801 110.351Z" fill="white"/>
<path d="M125.801 113.157V112.324L168.348 136.72V137.555L125.801 113.157Z" fill="white"/>
</g>
<path d="M95.5747 189.939C95.5747 189.939 95.0816 192.552 95.214 192.733C95.3463 192.915 97.7577 194.745 98.3678 194.457C98.978 194.169 100.862 192.211 102.721 191.524C104.58 190.836 107.195 188.925 107.068 187.831C106.943 186.737 105.718 185.838 104.22 186.332C102.722 186.826 96.5643 188.547 96.5643 188.547L95.5747 189.939Z" fill="#1D2035"/>
<path d="M119.356 118.446C119.356 118.446 119.028 116.059 120.469 114.85C121.909 113.641 123.849 112.597 123.849 112.597C123.849 112.597 124.438 113.146 123.512 113.856C122.584 114.566 123.29 114.777 123.29 114.777C123.29 114.777 127.964 110.697 129.072 111.106C130.18 111.514 125.498 115.295 125.498 115.295C125.498 115.295 126.685 119.056 125.929 119.725C125.171 120.395 123.438 121.639 123.438 121.639C123.438 121.639 122.735 118.754 119.356 118.446Z" fill="#FFBDBD"/>
<path d="M103.423 98.3572C103.423 98.3572 103.789 101.576 103.778 101.833C103.766 102.088 103.238 102.415 103.238 102.415C103.238 102.415 104.012 103.569 103.882 104.229C103.751 104.889 102.695 108.702 102.129 108.932C101.563 109.163 100.072 108.958 99.5159 109.114C98.9584 109.27 99.0603 112.742 99.0603 112.742C99.0603 112.742 95.1171 112.006 93.4178 111.15C91.7184 110.293 91.2266 109.57 91.2266 109.57C91.2266 109.57 91.3121 105.797 91.7348 104.022C92.1576 102.248 96.2449 98.3291 96.2449 98.3291L103.423 98.3572Z" fill="#FFBDBD"/>
<path d="M103.34 94.6387C103.34 94.6387 104.777 96.0523 104.182 97.9222C103.585 99.7922 101.729 101.099 101.056 101.239C100.382 101.379 100.382 101.379 100.382 101.379C100.382 101.379 100.89 104.306 100.225 104.831C99.5603 105.356 99.5603 107.246 99.0063 107.195C98.4536 107.142 99.086 104.347 98.1994 104.269C97.3129 104.192 96.7109 106.012 96.8479 106.727C96.985 107.442 95.4648 107.79 94.0735 107.582C92.6822 107.374 91.3038 107.414 90.4969 105.413C89.6911 103.412 89.2262 101.426 89.4721 99.7723C89.7181 98.1176 91.0145 97.7923 91.0145 97.7923C91.0145 97.7923 91.1539 94.7241 95.9836 94.7299C100.813 94.737 103.34 94.6387 103.34 94.6387Z" fill="#E33D15"/>
<path d="M83.4697 142.487C83.4697 142.487 82.2459 146.365 83.8515 149.684C85.4583 153.003 85.9631 154.734 85.9631 154.734L86.524 166.03C86.524 166.03 85.2791 171.92 84.9735 176.492C84.6678 181.064 84.9102 184.296 84.9102 184.296C84.9102 184.296 85.4243 185.743 87.4223 185.902C89.4191 186.062 90.8772 184.378 90.8772 184.378C90.8772 184.378 92.7709 172.197 93.5438 165.595C94.3156 158.993 95.0991 143.2 95.0991 143.2L83.4697 142.487Z" fill="#1D2035"/>
<path d="M85.2229 184.823C85.2229 184.823 84.9875 187.604 85.0941 187.651C85.2007 187.699 87.8427 189.566 88.707 189.306C89.5713 189.046 95.5804 182.511 95.4364 181.948C95.2912 181.385 94.5721 180.345 92.7967 180.938C91.0224 181.531 85.983 183.602 85.983 183.602L85.2229 184.823Z" fill="#1D2035"/>
<path d="M90.1172 147.088C90.1172 147.088 90.4556 151.591 92.7815 154.322C95.1074 157.054 96.7036 158.272 96.7036 158.272L96.9718 169.823C96.9718 169.823 95.8429 178.736 95.5805 184.093C95.3182 189.451 95.3147 189.938 95.3147 189.938C95.3147 189.938 96.453 191.454 98.8667 191.465C101.28 191.477 101.494 189.798 101.494 189.798C101.494 189.798 103.011 174.473 104.256 168.904C105.501 163.334 104.17 144.259 104.17 144.259C104.17 144.259 101.057 149.068 90.1172 147.088Z" fill="#2D2F4F"/>
<path d="M83.6334 110.311C83.6334 110.311 81.6753 111.588 80.1985 117.868C78.7217 124.147 76.9064 129.121 78.8376 130.301C80.7688 131.479 87.121 129.279 87.121 129.279L83.6334 110.311Z" fill="#F1A041"/>
<path d="M91.0262 108.078C91.0262 108.078 90.6655 109.521 94.2328 110.627C97.8 111.733 99.1996 111.531 99.3881 112.758C99.5767 113.984 100.046 115.32 100.046 115.32C100.046 115.32 105.127 116.829 105.257 120.283C105.387 123.738 104.164 144.26 104.164 144.26C104.164 144.26 102.129 148.68 92.551 147.531C82.9735 146.382 82.7744 140.242 82.7744 140.242C82.7744 140.242 82.313 120.901 82.4125 114.519C82.5121 108.137 87.6533 110.063 89.1278 109.268C90.6034 108.471 91.0262 108.078 91.0262 108.078Z" fill="#FFB156"/>
<path d="M102.709 117.356C100.177 116.351 97.6228 120.479 100.473 125.25C103.325 130.021 109.021 134.93 110.132 134.622C111.242 134.316 123.039 123.781 123.039 123.781C123.039 123.781 124.158 121.303 122.555 119.511C120.951 117.718 118.458 118.648 118.458 118.648C118.458 118.648 111.518 127.249 110.542 126.93C109.566 126.609 105.932 118.635 102.709 117.356Z" fill="#F1A041"/>
<path d="M181.442 141.254C177.74 140.053 175.151 144.761 176.619 153.365C178.086 161.969 178.817 161.1 178.817 161.1L174.013 175.295C174.013 175.295 173.912 177.547 175.423 178.133C176.935 178.719 178.07 178.259 178.07 178.259C178.07 178.259 183.686 165.329 184.29 160.597C184.895 155.864 185.244 142.486 181.442 141.254Z" fill="url(#paint1_linear_12809_61238)"/>
<path d="M163.419 134.412C163.419 134.412 162.896 134.949 163.035 136.252C163.175 137.554 163.903 140.304 164.685 140.799C165.467 141.294 167.139 141.214 167.139 141.214L167.974 147.428L176.359 141.137L174.762 134.267C174.762 134.267 166.984 132.287 166.861 132.288C166.738 132.29 163.419 134.412 163.419 134.412Z" fill="#FFBDBD"/>
<path d="M170.121 227.823C170.121 227.823 170.22 229.945 170.121 230.407C170.023 230.869 166.78 232.931 165.222 232.089C163.665 231.248 154.232 226.325 154.148 225.106C154.064 223.885 155.496 222.034 157.264 222.16C159.033 222.287 166.107 224.663 166.107 224.663L170.121 227.823Z" fill="#1D2035"/>
<path d="M181.816 219.431C181.816 219.431 182.486 222.709 182.233 222.96C181.98 223.213 179.243 225.022 178.359 224.601C177.474 224.18 171.074 218.29 171.074 217.069C171.074 215.849 172.674 214.756 174.78 215.849C176.885 216.944 181.816 219.431 181.816 219.431Z" fill="#1D2035"/>
<path d="M180.209 175.678C180.209 175.678 182.757 178.074 181.483 182.493C180.209 186.912 180.209 187.436 180.209 187.436V199.119C180.209 199.119 182.008 202.639 182.382 207.731C182.757 212.824 182.382 218.741 182.382 218.741C182.382 218.741 181.558 220.238 179.684 220.388C177.81 220.538 175.936 218.965 175.936 218.965C175.936 218.965 175.337 206.533 173.463 201.439C171.589 196.347 169.266 178.746 169.266 178.746L180.209 175.678Z" fill="#1D2035"/>
<path d="M175.415 141.935C175.415 141.935 168.557 144.611 167.381 145.394C166.205 146.177 165.707 147.933 165.707 147.933C165.707 147.933 159.759 148.967 159.805 152.818C159.826 154.584 162.235 160.446 162.23 166.276C162.226 173.159 159.805 179.997 159.805 179.997C159.805 179.997 162.222 183.261 171.889 181.564C181.556 179.867 180.707 174.451 180.707 174.451C180.707 174.451 180.446 163.878 181.622 159.7C182.798 155.523 184.77 147.783 183.987 143.998C183.203 140.212 178.827 140.473 177.585 140.931C176.343 141.386 175.415 141.935 175.415 141.935Z" fill="url(#paint2_linear_12809_61238)"/>
<path d="M175.905 180.441C175.905 180.441 176.316 184.116 174.267 187.096C172.217 190.075 170.633 191.377 170.633 191.377L169.263 203.665C169.263 203.665 170.633 209.437 170.633 214.93C170.633 220.423 170.633 226.938 170.633 226.938C170.633 226.938 169.98 229.08 167.186 229.08C164.391 229.08 162.621 226.66 162.621 226.66C162.621 226.66 163.18 209.438 161.13 204.131C159.081 198.824 159.803 179.996 159.803 179.996C159.803 179.996 167.388 183.655 175.905 180.441Z" fill="#2D2F4F"/>
<path d="M162.276 128.454C160.097 132.25 161.99 134.741 164.236 135.77C166.483 136.798 166.958 137.144 166.958 137.144C166.958 137.144 166.106 134.865 167.921 134.254C169.735 133.643 168.196 137.352 169.442 138.281C170.688 139.21 172.987 139.698 174.966 138.211C176.946 136.723 178.203 129.366 175.527 126.992C172.851 124.619 165.164 123.425 162.276 128.454Z" fill="#E33D15"/>
<path d="M173.171 126.728C173.171 126.728 171.665 127.101 171.599 129.567C171.534 132.034 173.72 132.887 173.72 132.887L174.719 132.874C174.719 132.874 173.136 137.769 174.371 142.393C175.607 147.016 184.479 146.902 184.479 146.902C184.479 146.902 180.155 144.257 180.155 139.675C180.155 135.095 181.379 129.676 179.173 127.179C176.964 124.683 173.171 126.728 173.171 126.728Z" fill="#E33D15"/>
<path d="M163.231 150.357C159.529 149.156 158.266 151.716 159.733 160.319C161.199 168.922 160.606 170.202 160.606 170.202L155.802 184.398C155.802 184.398 155.701 186.649 157.212 187.235C158.724 187.822 159.859 187.362 159.859 187.362C159.859 187.362 165.475 174.431 166.079 169.699C166.683 164.967 167.032 151.589 163.231 150.357Z" fill="url(#paint3_linear_12809_61238)"/>
<path d="M155.8 185.397C155.8 185.397 155.371 188.051 155.8 191.001C156.23 193.95 159.728 193.655 159.013 191.493C158.297 189.33 159.109 187.432 159.109 187.432C159.109 187.432 156.453 186.675 155.8 185.397Z" fill="#FFBDBD"/>
<path d="M40.9113 161.889C40.1179 163.791 46.4384 168.849 48.7176 170.597C47.4113 169.712 44.9054 168.411 44.2385 170.908C43.3236 174.332 55.3579 181.245 55.3579 181.245C55.3579 181.245 57.2106 171.294 55.7645 165.999C55.0615 163.419 53.1621 166.278 53.1621 166.278C53.1621 166.278 53.4518 157.261 51.2306 155.861C49.0093 154.46 48.435 159.43 48.435 159.43C48.435 159.43 43.1315 149.253 40.3339 150.942C37.5744 152.607 45.8905 161.639 46.1141 161.885C45.9418 161.795 41.8557 159.621 40.9113 161.889Z" fill="url(#paint4_linear_12809_61238)"/>
<path d="M41.9062 152.802C42.628 153.908 43.3467 155.014 44.0253 156.146C44.7186 157.267 45.3901 158.402 46.0513 159.541C47.3668 161.824 48.6228 164.139 49.7949 166.496L50.6529 168.275C50.9477 168.863 51.1917 169.474 51.4662 170.071L51.8728 170.971C52.0075 171.271 52.1229 171.581 52.2489 171.882L52.9931 173.712C53.4332 174.951 53.9202 176.176 54.2866 177.441C54.7294 178.685 54.9983 179.974 55.3541 181.248C54.9271 178.634 54.2712 176.063 53.3941 173.564C52.4958 171.071 51.458 168.631 50.2854 166.255C49.096 163.889 47.8121 161.571 46.4158 159.324C45.0195 157.077 43.5328 154.883 41.9062 152.802Z" fill="#00FFA3"/>
<path d="M43.5703 163.465L45.2741 164.571C45.8403 164.938 46.4172 165.287 46.9957 165.635C47.5741 165.982 48.1622 166.313 48.7615 166.628C49.3607 166.944 49.9646 167.251 50.5984 167.514C50.0868 167.064 49.5484 166.646 48.9861 166.261C48.4311 165.871 47.8567 165.511 47.2762 165.161C46.6897 164.82 46.0965 164.49 45.4825 164.195C44.8685 163.899 44.2392 163.627 43.5703 163.465Z" fill="#00FFA3"/>
<path d="M50.5988 167.513C50.7689 166.807 50.8983 166.091 50.9861 165.369C51.0827 164.652 51.1422 163.93 51.1895 163.208C51.2245 162.484 51.2464 161.76 51.2225 161.033C51.1986 160.307 51.1493 159.574 50.9638 158.863C50.9206 159.592 50.8464 160.304 50.7925 161.023C50.7284 161.74 50.6837 162.458 50.64 163.177C50.6039 163.896 50.5683 164.616 50.5597 165.338C50.551 166.061 50.548 166.784 50.5988 167.513Z" fill="#00FFA3"/>
<path d="M46.3594 171.251C47.0731 171.693 47.7624 172.174 48.424 172.691C49.094 173.193 49.7456 173.72 50.3962 174.25C51.0468 174.78 51.6913 175.314 52.3252 175.863C52.9656 176.404 53.6015 176.954 54.2256 177.508L54.7502 177.974L54.6821 177.276C54.6053 176.485 54.5657 175.679 54.5332 174.878C54.5006 174.078 54.4935 173.274 54.4935 172.471C54.5022 171.667 54.5311 170.865 54.585 170.063C54.6389 169.261 54.74 168.462 54.8635 167.662C54.6211 168.435 54.4605 169.232 54.3217 170.033C54.2028 170.836 54.1148 171.645 54.0676 172.456C54.0203 173.267 54.0081 174.08 54.0167 174.892C54.0254 175.704 54.0676 176.512 54.1362 177.332L54.5937 177.1C53.9593 176.54 53.3148 175.998 52.6622 175.461C52.0044 174.934 51.3457 174.407 50.6636 173.909C49.9814 173.411 49.2912 172.921 48.5796 172.467C47.8598 172.025 47.1376 171.58 46.3594 171.251Z" fill="#00FFA3"/>
<path d="M71.0951 159.132C71.9775 161.247 64.9499 166.871 62.4156 168.814C63.8683 167.83 66.6542 166.384 67.3968 169.16C68.4134 172.966 55.0337 180.653 55.0337 180.653C55.0337 180.653 52.9741 169.589 54.5834 163.702C55.3646 160.833 57.4765 164.011 57.4765 164.011C57.4765 164.011 57.1548 153.986 59.6215 152.43C62.0882 150.874 62.7322 156.399 62.7322 156.399C62.7322 156.399 68.6284 145.084 71.7396 146.962C74.8072 148.814 65.5609 158.856 65.3128 159.129C65.5019 159.028 70.0435 156.61 71.0951 159.132Z" fill="url(#paint5_linear_12809_61238)"/>
<path d="M69.9905 148.822C69.1885 150.052 68.3889 151.282 67.6346 152.54C66.8635 153.787 66.1174 155.048 65.3819 156.315C63.9195 158.854 62.5233 161.428 61.2195 164.048L60.2654 166.024C59.9376 166.678 59.6667 167.358 59.3602 168.021L58.9088 169.022C58.7594 169.355 58.6308 169.698 58.4905 170.035L57.6635 172.068C57.174 173.445 56.6322 174.808 56.2245 176.213C55.733 177.597 55.4326 179.03 55.0352 180.447C55.4992 177.546 56.2474 174.686 57.2147 171.903C58.2136 169.132 59.3675 166.419 60.6711 163.777C61.9926 161.146 63.4209 158.57 64.9737 156.071C66.5266 153.573 68.1805 151.137 69.9905 148.822Z" fill="#00FFA3"/>
<path d="M68.1376 160.884L66.2437 162.114C65.614 162.52 64.973 162.91 64.33 163.297C63.682 163.675 63.0324 164.051 62.3665 164.401C61.7007 164.751 61.0287 165.093 60.3242 165.386C60.8931 164.886 61.4917 164.421 62.1169 163.993C62.7335 163.559 63.3724 163.159 64.0174 162.77C64.6696 162.391 65.3293 162.024 66.012 161.698C66.6946 161.371 67.3945 161.065 68.1376 160.884Z" fill="#00FFA3"/>
<path d="M60.3221 165.386C60.1326 164.6 59.9887 163.805 59.891 163.003C59.7838 162.204 59.7177 161.402 59.6653 160.599C59.6262 159.795 59.6018 158.989 59.6282 158.181C59.6547 157.374 59.7096 156.558 59.9159 155.769C59.9668 156.578 60.0466 157.37 60.1065 158.169C60.1772 158.967 60.2275 159.765 60.2768 160.564C60.317 161.364 60.3566 162.164 60.3663 162.967C60.3759 163.771 60.378 164.575 60.3221 165.386Z" fill="#00FFA3"/>
<path d="M65.0372 169.333C64.2435 169.825 63.477 170.359 62.7413 170.934C61.9961 171.493 61.2708 172.079 60.5485 172.668C59.8262 173.257 59.1085 173.852 58.4035 174.462C57.6919 175.063 56.9844 175.674 56.2906 176.292L55.7081 176.81L55.7833 176.034C55.8687 175.155 55.9124 174.258 55.949 173.368C55.9856 172.478 55.9932 171.584 55.9932 170.691C55.9831 169.798 55.951 168.906 55.8916 168.014C55.8321 167.122 55.7193 166.235 55.582 165.345C55.8519 166.204 56.0298 167.091 56.1849 167.981C56.3165 168.874 56.4146 169.773 56.4659 170.675C56.5173 171.576 56.532 172.48 56.5244 173.383C56.5168 174.286 56.467 175.185 56.3917 176.094L55.8834 175.836C56.5889 175.213 57.3067 174.611 58.0294 174.015C58.7614 173.428 59.4933 172.841 60.2517 172.286C61.01 171.731 61.7765 171.189 62.5674 170.683C63.3685 170.195 64.1716 169.699 65.0372 169.333Z" fill="#00FFA3"/>
<path d="M61.1567 179.48L59.7472 189.497C59.7144 189.73 59.5986 189.943 59.4211 190.097C59.2436 190.251 59.0165 190.336 58.7815 190.336H50.8521C50.6169 190.336 50.3896 190.251 50.2121 190.097C50.0346 189.942 49.9189 189.729 49.8864 189.496L48.4861 179.48C48.4666 179.342 48.4771 179.201 48.5167 179.068C48.5564 178.934 48.6243 178.81 48.7158 178.705C48.8074 178.6 48.9205 178.515 49.0474 178.458C49.1744 178.4 49.3123 178.37 49.4518 178.37H60.192C60.3313 178.37 60.4691 178.4 60.5959 178.458C60.7227 178.516 60.8356 178.6 60.9271 178.706C61.0185 178.811 61.0863 178.934 61.1259 179.068C61.1655 179.202 61.176 179.342 61.1567 179.48Z" fill="#4991FF"/>
<path d="M227.578 214.681C227.524 216.278 226.468 217.604 225.361 218.565C224.966 218.905 224.566 219.203 224.2 219.446C223.531 219.895 222.986 220.169 222.837 220.243C222.772 220.255 222.708 220.267 222.644 220.278C222.415 220.321 222.177 220.36 221.928 220.397C221.419 220.473 220.874 220.539 220.297 220.585C220.102 220.601 219.906 220.615 219.704 220.626C219.229 220.654 218.735 220.667 218.222 220.665H218.177C218.041 220.665 217.907 220.663 217.774 220.659C217.446 220.654 217.127 220.638 216.815 220.62C216.642 220.609 216.473 220.597 216.306 220.583C215.688 220.533 215.108 220.461 214.571 220.377C214.351 220.344 214.139 220.307 213.933 220.27C213.924 220.268 213.912 220.266 213.902 220.265C213.768 220.206 213.054 219.885 212.232 219.314C212.01 219.16 211.782 218.989 211.555 218.802C210.53 217.948 209.53 216.737 209.373 215.187C209.18 213.289 210.32 211.573 211.971 210.301C212.173 210.142 212.381 209.994 212.597 209.852C213.293 209.393 214.058 209.008 214.834 208.712C215.009 208.646 215.182 208.584 215.359 208.528C215.82 208.376 216.283 208.259 216.734 208.178C216.852 208.156 216.971 208.139 217.088 208.121C217.129 208.115 217.169 208.112 217.21 208.106C217.535 208.065 217.868 208.043 218.202 208.04C218.309 208.038 218.416 208.038 218.523 208.04C218.826 208.045 219.132 208.065 219.437 208.1C219.634 208.119 219.826 208.147 220.019 208.178C220.427 208.244 220.832 208.333 221.232 208.444C221.479 208.512 221.722 208.588 221.963 208.672C222.527 208.866 223.074 209.103 223.589 209.374C223.932 209.555 224.262 209.751 224.575 209.959C226.396 211.182 227.638 212.872 227.578 214.681Z" fill="#226048"/>
<path d="M226.235 214.923C226.478 214.665 226.797 214.391 226.947 214.078C227.026 213.912 226.859 213.706 226.682 213.813C226.511 213.918 226.359 214.074 226.215 214.239C226.174 213.679 226.073 213.127 225.916 212.592C226.019 212.391 226.093 212.218 226.145 212.09C226.264 211.798 226.268 211.724 226.235 211.66C226.182 211.553 225.988 211.401 225.879 211.512C225.786 211.608 225.719 211.732 225.663 211.868C225.389 211.186 225.021 210.54 224.572 209.956C224.259 209.748 223.928 209.552 223.586 209.371C224.29 210.145 224.86 211.04 225.243 212.002C225.076 211.934 224.906 211.886 224.745 211.88C224.63 211.876 224.597 212.01 224.659 212.088C224.85 212.319 225.187 212.485 225.465 212.634C225.632 213.183 225.739 213.751 225.778 214.328C225.725 214.274 225.391 213.934 225.177 213.959C225.15 213.963 225.087 213.969 225.056 214.015C225.019 214.072 225.052 214.151 225.066 214.19C225.091 214.262 225.146 214.319 225.223 214.396C225.404 214.573 225.601 214.735 225.793 214.898C225.791 215.032 225.787 215.165 225.778 215.299C225.745 215.803 225.659 216.267 225.533 216.709C225.424 216.501 225.292 216.306 225.124 216.135C225.015 216.022 224.84 216.166 224.912 216.298C225.087 216.625 225.231 216.952 225.334 217.306C225.046 218.062 224.644 218.755 224.193 219.443C224.558 219.2 224.957 218.905 225.352 218.564C225.515 218.216 225.655 217.852 225.774 217.489C226.077 217.257 226.377 217.012 226.7 216.812C226.974 216.643 226.672 216.236 226.427 216.458C226.281 216.592 226.124 216.713 225.964 216.833C226.058 216.199 226.145 215.561 226.235 214.923Z" fill="#5FAA81"/>
<path d="M216.733 208.178C216.142 209.424 215.76 210.799 215.556 212.192C215.488 212.081 215.418 211.972 215.348 211.863C215.231 211.682 215.22 211.565 215.128 211.542C215.054 211.523 214.949 211.563 214.897 211.639C214.72 211.896 215.23 212.468 215.473 212.855C215.41 213.436 215.379 214.016 215.373 214.59C215.212 214.407 215.053 214.226 214.883 214.051C214.774 213.938 214.631 214.08 214.683 214.206C214.843 214.584 215.099 214.916 215.379 215.216C215.379 215.239 215.379 215.262 215.381 215.286C215.399 215.861 215.44 216.476 215.51 217.1C215.296 216.894 215.132 216.657 214.957 216.396C214.879 216.28 214.702 216.352 214.732 216.492C214.837 216.982 215.198 217.378 215.583 217.676C215.657 218.187 215.751 218.701 215.875 219.205C215.582 218.866 215.22 218.501 215.064 218.584C214.994 218.621 214.955 218.751 214.988 218.792C215.292 219.152 215.613 219.485 215.947 219.813C215.978 219.844 216.017 219.858 216.056 219.866C216.132 220.111 216.212 220.352 216.303 220.587C216.47 220.601 216.64 220.613 216.813 220.624C216.68 220.253 216.548 219.883 216.435 219.508C216.515 219.382 216.595 219.255 216.678 219.133C216.809 218.944 216.951 218.783 217.003 218.557C217.03 218.44 216.912 218.353 216.807 218.405C216.599 218.514 216.428 218.716 216.28 218.938C216.163 218.469 216.066 217.995 215.988 217.518C216.276 217.264 216.562 217.007 216.84 216.742C217.027 216.565 216.75 216.299 216.56 216.462C216.342 216.649 216.128 216.842 215.916 217.036C215.838 216.457 215.788 215.871 215.77 215.286C215.77 215.272 215.77 215.259 215.77 215.247C216.048 214.977 216.375 214.755 216.643 214.479C216.791 214.325 216.604 214.103 216.422 214.193C216.186 214.308 215.969 214.49 215.766 214.679C215.774 214.045 215.821 213.425 215.9 212.814C216.027 212.701 216.155 212.588 216.287 212.483C216.519 212.299 216.622 212.225 216.614 212.118C216.608 212.04 216.544 211.976 216.486 211.948C216.35 211.886 216.136 211.978 215.992 212.203C216.223 210.82 216.614 209.479 217.085 208.127C216.97 208.139 216.851 208.156 216.733 208.178Z" fill="#5FAA81"/>
<path d="M211.671 217.764C211.855 217.531 212.141 217.289 212.19 217.004C212.209 216.887 212.114 216.745 211.978 216.792C211.797 216.856 211.655 217.015 211.532 217.19C211.437 216.741 211.371 216.288 211.334 215.831C211.566 215.607 211.886 215.448 212.061 215.181C212.147 215.049 212.005 214.919 211.877 214.94C211.669 214.975 211.474 215.127 211.303 215.29C211.28 214.538 211.334 213.785 211.472 213.042C211.779 212.846 212.128 212.657 212.378 212.4C212.552 212.223 212.334 211.99 212.13 212.077C211.951 212.155 211.779 212.27 211.614 212.391C211.84 211.506 212.174 210.66 212.592 209.853C212.377 209.995 212.168 210.142 211.968 210.3C211.661 210.961 211.424 211.651 211.252 212.352C211.14 212.142 211.011 211.939 210.844 211.792C210.733 211.694 210.552 211.788 210.593 211.937C210.69 212.309 210.937 212.663 211.099 213.011C211.101 213.017 211.107 213.019 211.11 213.025C211.085 213.165 211.062 213.305 211.042 213.445C210.97 213.941 210.933 214.462 210.93 214.993C210.743 214.716 210.554 214.438 210.331 214.203C210.237 214.104 210.051 214.205 210.097 214.339C210.264 214.825 210.63 215.288 210.945 215.702C210.968 216.142 211.017 216.583 211.089 217.021C210.904 216.829 210.712 216.642 210.502 216.482C210.385 216.395 210.233 216.564 210.307 216.677C210.566 217.089 210.924 217.445 211.25 217.807C211.332 218.143 211.431 218.476 211.548 218.799C211.778 218.987 212.005 219.158 212.227 219.312C212.042 218.797 211.855 218.279 211.671 217.764Z" fill="#5FAA81"/>
<path d="M214.434 218.203C214.441 218.183 214.447 218.15 214.438 218.117C214.412 218.03 214.294 217.989 214.206 218.028C214.033 218.105 213.889 218.269 213.77 218.454C213.652 218.063 213.553 217.668 213.477 217.267C213.656 217.026 213.872 216.779 213.969 216.499C214.037 216.297 213.78 216.2 213.644 216.31C213.541 216.394 213.453 216.503 213.372 216.618C213.29 216.009 213.257 215.392 213.276 214.778C213.529 214.607 213.817 214.391 213.891 214.13C213.914 214.045 213.792 213.957 213.697 213.936C213.562 213.907 213.397 214.01 213.31 214.206C213.36 213.597 213.465 212.996 213.617 212.405C213.7 212.368 213.78 212.31 213.848 212.267C214.051 212.139 214.278 212.001 214.434 211.816C214.574 211.651 214.401 211.4 214.198 211.511C214.056 211.588 213.922 211.707 213.786 211.816C214.148 210.653 214.688 209.543 215.363 208.529C215.186 208.586 215.013 208.648 214.838 208.714C214.185 209.648 213.689 210.684 213.354 211.773C213.232 211.575 213.115 211.369 212.897 211.293C212.837 211.271 212.784 211.326 212.781 211.382C212.765 211.592 212.903 211.756 213.006 211.929C213.063 212.026 213.125 212.176 213.21 212.289C213.063 212.866 212.954 213.454 212.893 214.049C212.889 214.084 212.888 214.123 212.884 214.159C212.763 213.948 212.639 213.737 212.485 213.559C212.394 213.452 212.254 213.57 212.271 213.683C212.335 214.086 212.604 214.488 212.81 214.832C212.818 214.846 212.831 214.856 212.841 214.867C212.825 215.391 212.841 215.945 212.893 216.507C212.773 216.396 212.652 216.283 212.551 216.155C212.473 216.056 212.3 216.163 212.341 216.277C212.469 216.641 212.781 216.869 212.975 217.186C213.045 217.662 213.146 218.137 213.275 218.598C213.078 218.448 212.882 218.3 212.689 218.146C212.641 218.107 212.547 218.111 212.534 218.187C212.522 218.249 212.528 218.317 212.539 218.351C212.631 218.59 213.347 219.144 213.483 219.249C213.613 219.607 213.763 219.953 213.936 220.276C214.142 220.313 214.354 220.35 214.574 220.383C214.352 219.922 214.126 219.463 213.945 218.979C213.994 218.905 214.369 218.382 214.434 218.203Z" fill="#5FAA81"/>
<path d="M219.159 212.536C219.058 212.551 219.043 212.715 218.844 212.999C218.805 213.055 218.762 213.11 218.718 213.162C218.737 211.451 218.679 209.739 218.521 208.038C218.414 208.036 218.307 208.036 218.2 208.038C218.294 209.728 218.352 211.416 218.34 213.106C218.179 212.843 217.99 212.594 217.753 212.427C217.67 212.367 217.539 212.468 217.574 212.565C217.74 213.018 218.068 213.425 218.288 213.856C218.298 213.876 218.313 213.888 218.329 213.901C218.323 214.218 218.276 215.443 218.261 215.739C218.123 215.521 217.975 215.309 217.794 215.156C217.703 215.078 217.568 215.152 217.594 215.272C217.675 215.673 217.983 216.068 218.206 216.402C218.21 216.408 218.216 216.414 218.22 216.42C218.187 216.951 218.146 217.48 218.099 218.009C218.078 217.968 218.055 217.925 218.033 217.884C217.936 217.695 217.862 217.489 217.705 217.347C217.642 217.291 217.539 217.33 217.539 217.415C217.531 217.826 217.85 218.322 218.035 218.685C217.948 219.343 217.86 220 217.775 220.659C217.907 220.663 218.041 220.665 218.177 220.665C218.241 220.165 218.379 218.847 218.397 218.683C218.576 218.491 218.751 218.296 218.926 218.102C219.078 217.935 219.245 217.816 219.258 217.585C219.264 217.507 219.185 217.468 219.118 217.478C218.897 217.513 218.77 217.725 218.626 217.884C218.572 217.944 218.515 218.005 218.461 218.065C218.515 217.497 218.558 216.927 218.595 216.359C218.729 216.198 218.864 216.037 219.004 215.883C219.146 215.727 219.309 215.599 219.375 215.397C219.41 215.29 219.295 215.169 219.186 215.208C218.986 215.28 218.801 215.457 218.636 215.655C218.648 215.451 218.659 215.249 218.667 215.045C218.685 214.63 218.698 214.214 218.706 213.798C218.883 213.621 219.015 213.462 219.107 213.341C219.433 212.913 219.408 212.785 219.395 212.74C219.361 212.625 219.249 212.522 219.159 212.536Z" fill="#5FAA81"/>
<path d="M222.08 217.139C222.257 216.917 221.942 216.602 221.767 216.826C221.635 216.995 221.491 217.145 221.34 217.285C221.437 216.773 221.509 216.268 221.553 215.78C221.573 215.57 221.585 215.36 221.592 215.15C221.82 214.869 222.065 214.56 222.184 214.23C222.252 214.041 221.983 213.895 221.851 214.035C221.762 214.13 221.68 214.239 221.602 214.35C221.588 213.701 221.528 213.053 221.421 212.411C221.53 212.252 221.606 212.044 221.686 211.878C221.785 211.672 221.878 211.489 221.767 211.275C221.723 211.188 221.59 211.174 221.524 211.244C221.406 211.371 221.345 211.54 221.289 211.713C221.18 211.215 221.046 210.721 220.881 210.239C220.651 209.568 220.377 208.844 220.021 208.177C219.828 208.146 219.636 208.119 219.441 208.1C219.821 208.829 220.204 209.55 220.472 210.352C220.649 210.875 220.787 211.41 220.898 211.952C220.855 211.921 220.812 211.892 220.774 211.869C220.606 211.769 220.437 211.68 220.262 211.596C220.136 211.536 219.982 211.697 220.103 211.804C220.27 211.954 220.443 212.094 220.628 212.225C220.746 212.31 220.869 212.417 220.999 212.495C221.112 213.183 221.17 213.881 221.174 214.58C221.005 214.395 220.83 214.218 220.637 214.043C220.527 213.942 220.387 214.092 220.476 214.204C220.725 214.517 220.949 214.868 221.164 215.206C221.157 215.396 221.147 215.589 221.131 215.78C221.087 216.32 220.999 216.84 220.884 217.343C220.766 217.176 220.647 217.009 220.525 216.843C220.435 216.725 220.264 216.824 220.324 216.96C220.462 217.265 220.601 217.567 220.754 217.864C220.606 218.405 220.427 218.932 220.221 219.448C220.202 219.393 220.18 219.341 220.161 219.298C220.075 219.117 219.99 218.936 219.895 218.759C219.823 218.625 219.618 218.718 219.653 218.86C219.716 219.115 219.801 219.36 219.898 219.603C219.937 219.7 219.976 219.813 220.023 219.916C219.92 220.153 219.815 220.391 219.702 220.626C219.904 220.614 220.101 220.601 220.295 220.585C220.377 220.412 220.453 220.237 220.525 220.06C220.698 219.953 220.859 219.803 221.007 219.691C221.219 219.527 221.493 219.379 221.573 219.113C221.606 219.004 221.503 218.934 221.406 218.946C221.17 218.979 220.982 219.148 220.797 219.329C220.953 218.878 221.081 218.419 221.19 217.958C221.532 217.736 221.83 217.454 222.08 217.139Z" fill="#5FAA81"/>
<path d="M224.492 217.124C224.48 217.058 224.432 216.99 224.371 216.972C224.282 216.947 224.2 217.04 223.998 217.21C223.875 217.313 223.767 217.392 223.685 217.453C223.761 217.122 223.829 216.758 223.881 216.364C223.928 216.006 223.959 215.654 223.971 215.313C224.017 215.243 224.093 215.136 224.196 215.014C224.436 214.732 224.579 214.652 224.607 214.456C224.611 214.43 224.634 214.246 224.531 214.176C224.449 214.121 224.321 214.16 224.249 214.213C224.189 214.255 224.185 214.298 224.043 214.491C224.021 214.52 223.998 214.551 223.977 214.58C223.947 213.752 223.817 212.904 223.591 212.073C223.677 211.85 223.745 211.677 223.786 211.575C223.932 211.204 223.908 211.107 223.924 210.978C223.938 210.85 223.784 210.749 223.671 210.786C223.665 210.788 223.658 210.79 223.652 210.792C223.652 210.792 223.605 210.809 223.562 210.844C223.525 210.875 223.44 211.101 223.395 211.43C223.059 210.44 222.582 209.495 221.966 208.67C221.724 208.586 221.481 208.51 221.234 208.442C221.997 209.489 222.615 210.611 223.024 211.811C222.989 211.791 222.944 211.768 222.887 211.739C222.569 211.575 222.407 211.496 222.341 211.548C222.287 211.591 222.261 211.737 222.325 211.784C222.572 211.97 222.825 212.147 223.096 212.301C223.127 212.318 223.158 212.334 223.191 212.346C223.401 213.094 223.529 213.872 223.556 214.683C223.376 214.51 223.195 214.339 223 214.18C222.882 214.08 222.654 214.216 222.767 214.36C223.014 214.681 223.282 214.981 223.558 215.276C223.537 216.031 223.43 216.733 223.251 217.398C223.22 217.338 222.965 216.861 222.868 216.747C222.858 216.735 222.837 216.716 222.812 216.712C222.744 216.702 222.677 216.778 222.689 216.852C222.73 217.112 222.847 217.361 222.952 217.602C222.998 217.709 223.039 217.828 223.094 217.939C222.808 218.798 222.407 219.606 221.936 220.393C222.185 220.356 222.423 220.317 222.652 220.275C223.02 219.6 223.308 218.863 223.521 218.116C223.689 218.017 223.846 217.849 223.978 217.729C224.362 217.377 224.515 217.264 224.492 217.124Z" fill="#5FAA81"/>
<path d="M219.289 207.334C220.594 205.006 222.187 205.307 220.833 207.63C223.78 206.391 225.407 207.287 221.318 208.627C224.818 208.367 224.983 210.372 221.053 209.283C223.912 210.632 223.278 212.536 220.118 209.985C220.594 213.094 219.324 212.811 218.507 209.851C218.136 213.217 216.697 212.464 217.045 210.08C215.1 212.036 213.243 211.661 216.063 209.487C212.786 211.251 212.636 209.185 215.816 208.732C213.217 208.674 212.393 206.632 216.687 207.982C214.098 204.561 216.494 205.111 217.574 207.546C218.062 204.584 219.738 204.603 219.289 207.334Z" fill="#FCAA11"/>
<path d="M218.087 209.485C217.652 210.84 215.127 212.347 217.012 209.275C213.457 210.792 214.19 208.711 216.329 208.47C213.894 207.985 214.713 205.782 217.341 208.083C215.847 206.894 217.185 204.162 218.113 207.686C219.272 205.082 220.826 206.326 219.351 207.822C221.961 206.118 222.784 207.312 220.497 208.575C220.839 208.508 221.438 208.444 222.115 208.658C224.322 209.356 222.068 209.87 220.59 209.3C223.103 211.931 220.149 210.91 219.235 209.417C219.388 210.364 218.511 213.402 218.087 209.485Z" fill="#FED13E"/>
<path d="M219.912 208.534C219.912 209.028 217.043 209.028 217.043 208.534C217.043 208.04 219.912 208.04 219.912 208.534Z" fill="#FFEBB8"/>
</g>
<defs>
<linearGradient id="paint0_linear_12809_61238" x1="133.715" y1="77.9102" x2="133.715" y2="99.6206" gradientUnits="userSpaceOnUse">
<stop stop-color="#00FFA3"/>
<stop offset="1" stop-color="#00FFA3" stop-opacity="0"/>
</linearGradient>
<linearGradient id="paint1_linear_12809_61238" x1="174.012" y1="159.749" x2="184.666" y2="159.749" gradientUnits="userSpaceOnUse">
<stop stop-color="#38ACA8"/>
<stop offset="1" stop-color="#5F637A"/>
</linearGradient>
<linearGradient id="paint2_linear_12809_61238" x1="159.803" y1="161.363" x2="184.164" y2="161.363" gradientUnits="userSpaceOnUse">
<stop stop-color="#BEC2CE"/>
<stop offset="1" stop-color="#F4F5F7"/>
</linearGradient>
<linearGradient id="paint3_linear_12809_61238" x1="155.8" y1="168.805" x2="166.454" y2="168.805" gradientUnits="userSpaceOnUse">
<stop stop-color="#38ACA8"/>
<stop offset="1" stop-color="#5F637A"/>
</linearGradient>
<linearGradient id="paint4_linear_12809_61238" x1="48.0449" y1="150.753" x2="48.0449" y2="181.245" gradientUnits="userSpaceOnUse">
<stop stop-color="#00FFA3"/>
<stop offset="1" stop-color="#00FFA3" stop-opacity="0"/>
</linearGradient>
<linearGradient id="paint5_linear_12809_61238" x1="63.1656" y1="146.752" x2="63.1656" y2="180.653" gradientUnits="userSpaceOnUse">
<stop stop-color="#00FFA3"/>
<stop offset="1" stop-color="#00FFA3" stop-opacity="0"/>
</linearGradient>
<clipPath id="clip0_12809_61238">
<rect width="290" height="290" fill="white"/>
</clipPath>
</defs>
</svg>
